<?xml version="1.0" encoding="UTF-8"?>
<svg xmlns="http://www.w3.org/2000/svg" xmlns:xlink="http://www.w3.org/1999/xlink" width="520" height="292" viewBox="0 0 520 292">
<defs>
<g>
<g id="glyph-0-0">
<path d="M 1.015625 -7.59375 L 2.046875 -7.59375 L 2.046875 -0.859375 L 5.734375 -0.859375 L 5.734375 0 L 1.015625 0 Z M 1.015625 -7.59375 "/>
</g>
<g id="glyph-0-1">
<path d="M 3.1875 -5.03125 C 2.6875 -5.03125 2.289062 -4.832031 2 -4.4375 C 1.707031 -4.050781 1.5625 -3.519531 1.5625 -2.84375 C 1.5625 -2.15625 1.703125 -1.613281 1.984375 -1.21875 C 2.273438 -0.832031 2.675781 -0.640625 3.1875 -0.640625 C 3.6875 -0.640625 4.082031 -0.835938 4.375 -1.234375 C 4.664062 -1.628906 4.8125 -2.164062 4.8125 -2.84375 C 4.8125 -3.507812 4.664062 -4.039062 4.375 -4.4375 C 4.082031 -4.832031 3.6875 -5.03125 3.1875 -5.03125 Z M 3.1875 -5.828125 C 4 -5.828125 4.632812 -5.5625 5.09375 -5.03125 C 5.5625 -4.507812 5.796875 -3.78125 5.796875 -2.84375 C 5.796875 -1.90625 5.5625 -1.171875 5.09375 -0.640625 C 4.632812 -0.117188 4 0.140625 3.1875 0.140625 C 2.375 0.140625 1.734375 -0.117188 1.265625 -0.640625 C 0.804688 -1.171875 0.578125 -1.90625 0.578125 -2.84375 C 0.578125 -3.78125 0.804688 -4.507812 1.265625 -5.03125 C 1.734375 -5.5625 2.375 -5.828125 3.1875 -5.828125 Z M 3.1875 -5.828125 "/>
</g>
<g id="glyph-0-2">
<path d="M 5.078125 -5.46875 L 5.078125 -4.59375 C 4.816406 -4.738281 4.550781 -4.847656 4.28125 -4.921875 C 4.007812 -4.992188 3.738281 -5.03125 3.46875 -5.03125 C 2.863281 -5.03125 2.394531 -4.835938 2.0625 -4.453125 C 1.726562 -4.066406 1.5625 -3.53125 1.5625 -2.84375 C 1.5625 -2.144531 1.726562 -1.601562 2.0625 -1.21875 C 2.394531 -0.832031 2.863281 -0.640625 3.46875 -0.640625 C 3.738281 -0.640625 4.007812 -0.675781 4.28125 -0.75 C 4.550781 -0.820312 4.816406 -0.929688 5.078125 -1.078125 L 5.078125 -0.21875 C 4.816406 -0.09375 4.546875 -0.00390625 4.265625 0.046875 C 3.984375 0.109375 3.6875 0.140625 3.375 0.140625 C 2.519531 0.140625 1.835938 -0.125 1.328125 -0.65625 C 0.828125 -1.195312 0.578125 -1.925781 0.578125 -2.84375 C 0.578125 -3.769531 0.832031 -4.5 1.34375 -5.03125 C 1.851562 -5.5625 2.550781 -5.828125 3.4375 -5.828125 C 3.71875 -5.828125 3.992188 -5.796875 4.265625 -5.734375 C 4.546875 -5.679688 4.816406 -5.59375 5.078125 -5.46875 Z M 5.078125 -5.46875 "/>
</g>
<g id="glyph-0-3">
<path d="M 3.5625 -2.859375 C 2.8125 -2.859375 2.289062 -2.769531 2 -2.59375 C 1.707031 -2.425781 1.5625 -2.132812 1.5625 -1.71875 C 1.5625 -1.382812 1.671875 -1.117188 1.890625 -0.921875 C 2.109375 -0.734375 2.40625 -0.640625 2.78125 -0.640625 C 3.300781 -0.640625 3.71875 -0.820312 4.03125 -1.1875 C 4.34375 -1.550781 4.5 -2.039062 4.5 -2.65625 L 4.5 -2.859375 Z M 5.4375 -3.25 L 5.4375 0 L 4.5 0 L 4.5 -0.859375 C 4.28125 -0.515625 4.007812 -0.257812 3.6875 -0.09375 C 3.375 0.0625 2.988281 0.140625 2.53125 0.140625 C 1.945312 0.140625 1.484375 -0.0195312 1.140625 -0.34375 C 0.796875 -0.664062 0.625 -1.101562 0.625 -1.65625 C 0.625 -2.289062 0.835938 -2.769531 1.265625 -3.09375 C 1.691406 -3.425781 2.332031 -3.59375 3.1875 -3.59375 L 4.5 -3.59375 L 4.5 -3.6875 C 4.5 -4.113281 4.351562 -4.441406 4.0625 -4.671875 C 3.78125 -4.910156 3.382812 -5.03125 2.875 -5.03125 C 2.550781 -5.03125 2.234375 -4.988281 1.921875 -4.90625 C 1.617188 -4.832031 1.328125 -4.71875 1.046875 -4.5625 L 1.046875 -5.4375 C 1.390625 -5.5625 1.71875 -5.65625 2.03125 -5.71875 C 2.351562 -5.789062 2.671875 -5.828125 2.984375 -5.828125 C 3.804688 -5.828125 4.421875 -5.613281 4.828125 -5.1875 C 5.234375 -4.757812 5.4375 -4.113281 5.4375 -3.25 Z M 5.4375 -3.25 "/>
</g>
<g id="glyph-0-4">
<path d="M 1.90625 -7.3125 L 1.90625 -5.6875 L 3.828125 -5.6875 L 3.828125 -4.96875 L 1.90625 -4.96875 L 1.90625 -1.875 C 1.90625 -1.40625 1.96875 -1.101562 2.09375 -0.96875 C 2.21875 -0.84375 2.476562 -0.78125 2.875 -0.78125 L 3.828125 -0.78125 L 3.828125 0 L 2.875 0 C 2.144531 0 1.644531 -0.132812 1.375 -0.40625 C 1.101562 -0.675781 0.96875 -1.164062 0.96875 -1.875 L 0.96875 -4.96875 L 0.28125 -4.96875 L 0.28125 -5.6875 L 0.96875 -5.6875 L 0.96875 -7.3125 Z M 1.90625 -7.3125 "/>
</g>
<g id="glyph-0-5">
<path d="M 0.984375 -5.6875 L 1.921875 -5.6875 L 1.921875 0 L 0.984375 0 Z M 0.984375 -7.90625 L 1.921875 -7.90625 L 1.921875 -6.71875 L 0.984375 -6.71875 Z M 0.984375 -7.90625 "/>
</g>
<g id="glyph-0-6">
<path d="M 5.71875 -3.4375 L 5.71875 0 L 4.78125 0 L 4.78125 -3.40625 C 4.78125 -3.945312 4.671875 -4.347656 4.453125 -4.609375 C 4.242188 -4.878906 3.929688 -5.015625 3.515625 -5.015625 C 3.015625 -5.015625 2.617188 -4.851562 2.328125 -4.53125 C 2.035156 -4.207031 1.890625 -3.769531 1.890625 -3.21875 L 1.890625 0 L 0.9375 0 L 0.9375 -5.6875 L 1.890625 -5.6875 L 1.890625 -4.8125 C 2.109375 -5.144531 2.367188 -5.394531 2.671875 -5.5625 C 2.972656 -5.738281 3.320312 -5.828125 3.71875 -5.828125 C 4.375 -5.828125 4.867188 -5.625 5.203125 -5.21875 C 5.546875 -4.8125 5.71875 -4.21875 5.71875 -3.4375 Z M 5.71875 -3.4375 "/>
</g>
<g id="glyph-0-7">
</g>
<g id="glyph-0-8">
<path d="M 2 -0.859375 L 5.578125 -0.859375 L 5.578125 0 L 0.765625 0 L 0.765625 -0.859375 C 1.148438 -1.265625 1.675781 -1.804688 2.34375 -2.484375 C 3.019531 -3.160156 3.445312 -3.597656 3.625 -3.796875 C 3.945312 -4.171875 4.171875 -4.484375 4.296875 -4.734375 C 4.429688 -4.992188 4.5 -5.25 4.5 -5.5 C 4.5 -5.894531 4.359375 -6.21875 4.078125 -6.46875 C 3.796875 -6.726562 3.429688 -6.859375 2.984375 -6.859375 C 2.660156 -6.859375 2.316406 -6.800781 1.953125 -6.6875 C 1.597656 -6.582031 1.21875 -6.414062 0.8125 -6.1875 L 0.8125 -7.21875 C 1.226562 -7.382812 1.613281 -7.507812 1.96875 -7.59375 C 2.332031 -7.675781 2.660156 -7.71875 2.953125 -7.71875 C 3.742188 -7.71875 4.367188 -7.519531 4.828125 -7.125 C 5.296875 -6.738281 5.53125 -6.21875 5.53125 -5.5625 C 5.53125 -5.25 5.472656 -4.953125 5.359375 -4.671875 C 5.242188 -4.390625 5.03125 -4.0625 4.71875 -3.6875 C 4.632812 -3.582031 4.363281 -3.296875 3.90625 -2.828125 C 3.457031 -2.359375 2.820312 -1.703125 2 -0.859375 Z M 2 -0.859375 "/>
</g>
<g id="glyph-0-9">
<path d="M 0.859375 -7.59375 L 5.734375 -7.59375 L 5.734375 -7.15625 L 2.984375 0 L 1.90625 0 L 4.5 -6.71875 L 0.859375 -6.71875 Z M 0.859375 -7.59375 "/>
</g>
<g id="glyph-0-10">
<path d="M 3.9375 -6.6875 L 1.34375 -2.640625 L 3.9375 -2.640625 Z M 3.65625 -7.59375 L 4.953125 -7.59375 L 4.953125 -2.640625 L 6.03125 -2.640625 L 6.03125 -1.78125 L 4.953125 -1.78125 L 4.953125 0 L 3.9375 0 L 3.9375 -1.78125 L 0.515625 -1.78125 L 0.515625 -2.78125 Z M 3.65625 -7.59375 "/>
</g>
<g id="glyph-0-11">
<path d="M 3.3125 -6.90625 C 2.78125 -6.90625 2.378906 -6.644531 2.109375 -6.125 C 1.847656 -5.601562 1.71875 -4.820312 1.71875 -3.78125 C 1.71875 -2.738281 1.847656 -1.957031 2.109375 -1.4375 C 2.378906 -0.925781 2.78125 -0.671875 3.3125 -0.671875 C 3.84375 -0.671875 4.238281 -0.925781 4.5 -1.4375 C 4.769531 -1.957031 4.90625 -2.738281 4.90625 -3.78125 C 4.90625 -4.820312 4.769531 -5.601562 4.5 -6.125 C 4.238281 -6.644531 3.84375 -6.90625 3.3125 -6.90625 Z M 3.3125 -7.71875 C 4.15625 -7.71875 4.800781 -7.378906 5.25 -6.703125 C 5.707031 -6.035156 5.9375 -5.0625 5.9375 -3.78125 C 5.9375 -2.507812 5.707031 -1.535156 5.25 -0.859375 C 4.800781 -0.191406 4.15625 0.140625 3.3125 0.140625 C 2.457031 0.140625 1.804688 -0.191406 1.359375 -0.859375 C 0.910156 -1.535156 0.6875 -2.507812 0.6875 -3.78125 C 0.6875 -5.0625 0.910156 -6.035156 1.359375 -6.703125 C 1.804688 -7.378906 2.457031 -7.71875 3.3125 -7.71875 Z M 3.3125 -7.71875 "/>
</g>
<g id="glyph-0-12">
<path d="M 3.3125 -3.609375 C 2.820312 -3.609375 2.4375 -3.472656 2.15625 -3.203125 C 1.875 -2.941406 1.734375 -2.585938 1.734375 -2.140625 C 1.734375 -1.679688 1.875 -1.320312 2.15625 -1.0625 C 2.4375 -0.800781 2.820312 -0.671875 3.3125 -0.671875 C 3.800781 -0.671875 4.1875 -0.800781 4.46875 -1.0625 C 4.75 -1.320312 4.890625 -1.679688 4.890625 -2.140625 C 4.890625 -2.585938 4.75 -2.941406 4.46875 -3.203125 C 4.1875 -3.472656 3.800781 -3.609375 3.3125 -3.609375 Z M 2.28125 -4.046875 C 1.84375 -4.148438 1.5 -4.351562 1.25 -4.65625 C 1.007812 -4.957031 0.890625 -5.320312 0.890625 -5.75 C 0.890625 -6.363281 1.101562 -6.84375 1.53125 -7.1875 C 1.96875 -7.539062 2.5625 -7.71875 3.3125 -7.71875 C 4.0625 -7.71875 4.648438 -7.539062 5.078125 -7.1875 C 5.515625 -6.84375 5.734375 -6.363281 5.734375 -5.75 C 5.734375 -5.320312 5.609375 -4.957031 5.359375 -4.65625 C 5.117188 -4.351562 4.78125 -4.148438 4.34375 -4.046875 C 4.832031 -3.921875 5.210938 -3.691406 5.484375 -3.359375 C 5.765625 -3.023438 5.90625 -2.617188 5.90625 -2.140625 C 5.90625 -1.398438 5.679688 -0.832031 5.234375 -0.4375 C 4.785156 -0.0507812 4.144531 0.140625 3.3125 0.140625 C 2.46875 0.140625 1.820312 -0.0507812 1.375 -0.4375 C 0.925781 -0.832031 0.703125 -1.398438 0.703125 -2.140625 C 0.703125 -2.617188 0.84375 -3.023438 1.125 -3.359375 C 1.40625 -3.691406 1.789062 -3.921875 2.28125 -4.046875 Z M 1.90625 -5.65625 C 1.90625 -5.269531 2.023438 -4.960938 2.265625 -4.734375 C 2.515625 -4.515625 2.863281 -4.40625 3.3125 -4.40625 C 3.75 -4.40625 4.09375 -4.515625 4.34375 -4.734375 C 4.59375 -4.960938 4.71875 -5.269531 4.71875 -5.65625 C 4.71875 -6.050781 4.59375 -6.359375 4.34375 -6.578125 C 4.09375 -6.796875 3.75 -6.90625 3.3125 -6.90625 C 2.863281 -6.90625 2.515625 -6.796875 2.265625 -6.578125 C 2.023438 -6.359375 1.90625 -6.050781 1.90625 -5.65625 Z M 1.90625 -5.65625 "/>
</g>
<g id="glyph-0-13">
<path d="M 1.296875 -0.859375 L 2.96875 -0.859375 L 2.96875 -6.65625 L 1.140625 -6.28125 L 1.140625 -7.21875 L 2.953125 -7.59375 L 3.984375 -7.59375 L 3.984375 -0.859375 L 5.65625 -0.859375 L 5.65625 0 L 1.296875 0 Z M 1.296875 -0.859375 "/>
</g>
<g id="glyph-0-14">
<path d="M 4.21875 -4.09375 C 4.707031 -3.988281 5.085938 -3.769531 5.359375 -3.4375 C 5.640625 -3.101562 5.78125 -2.691406 5.78125 -2.203125 C 5.78125 -1.453125 5.523438 -0.875 5.015625 -0.46875 C 4.503906 -0.0625 3.769531 0.140625 2.8125 0.140625 C 2.5 0.140625 2.171875 0.109375 1.828125 0.046875 C 1.492188 -0.015625 1.148438 -0.109375 0.796875 -0.234375 L 0.796875 -1.21875 C 1.078125 -1.050781 1.382812 -0.925781 1.71875 -0.84375 C 2.0625 -0.757812 2.421875 -0.71875 2.796875 -0.71875 C 3.429688 -0.71875 3.914062 -0.84375 4.25 -1.09375 C 4.59375 -1.351562 4.765625 -1.722656 4.765625 -2.203125 C 4.765625 -2.648438 4.609375 -3 4.296875 -3.25 C 3.984375 -3.507812 3.546875 -3.640625 2.984375 -3.640625 L 2.109375 -3.640625 L 2.109375 -4.46875 L 3.03125 -4.46875 C 3.53125 -4.46875 3.914062 -4.566406 4.1875 -4.765625 C 4.457031 -4.972656 4.59375 -5.269531 4.59375 -5.65625 C 4.59375 -6.039062 4.453125 -6.335938 4.171875 -6.546875 C 3.898438 -6.753906 3.503906 -6.859375 2.984375 -6.859375 C 2.703125 -6.859375 2.398438 -6.828125 2.078125 -6.765625 C 1.753906 -6.703125 1.398438 -6.609375 1.015625 -6.484375 L 1.015625 -7.390625 C 1.410156 -7.503906 1.773438 -7.585938 2.109375 -7.640625 C 2.453125 -7.691406 2.773438 -7.71875 3.078125 -7.71875 C 3.859375 -7.71875 4.472656 -7.539062 4.921875 -7.1875 C 5.378906 -6.832031 5.609375 -6.351562 5.609375 -5.75 C 5.609375 -5.332031 5.488281 -4.976562 5.25 -4.6875 C 5.007812 -4.40625 4.664062 -4.207031 4.21875 -4.09375 Z M 4.21875 -4.09375 "/>
</g>
<g id="glyph-0-15">
<path d="M 6.1875 -1.078125 L 6.1875 -3.125 L 4.515625 -3.125 L 4.515625 -3.96875 L 7.203125 -3.96875 L 7.203125 -0.703125 C 6.804688 -0.421875 6.367188 -0.207031 5.890625 -0.0625 C 5.421875 0.0703125 4.914062 0.140625 4.375 0.140625 C 3.1875 0.140625 2.253906 -0.203125 1.578125 -0.890625 C 0.910156 -1.585938 0.578125 -2.550781 0.578125 -3.78125 C 0.578125 -5.019531 0.910156 -5.984375 1.578125 -6.671875 C 2.253906 -7.367188 3.1875 -7.71875 4.375 -7.71875 C 4.863281 -7.71875 5.332031 -7.65625 5.78125 -7.53125 C 6.226562 -7.414062 6.640625 -7.238281 7.015625 -7 L 7.015625 -5.90625 C 6.628906 -6.226562 6.222656 -6.46875 5.796875 -6.625 C 5.367188 -6.789062 4.921875 -6.875 4.453125 -6.875 C 3.523438 -6.875 2.828125 -6.613281 2.359375 -6.09375 C 1.898438 -5.582031 1.671875 -4.8125 1.671875 -3.78125 C 1.671875 -2.757812 1.898438 -1.988281 2.359375 -1.46875 C 2.828125 -0.957031 3.523438 -0.703125 4.453125 -0.703125 C 4.816406 -0.703125 5.140625 -0.734375 5.421875 -0.796875 C 5.710938 -0.859375 5.96875 -0.953125 6.1875 -1.078125 Z M 6.1875 -1.078125 "/>
</g>
<g id="glyph-0-16">
<path d="M 5.40625 -4.59375 C 5.644531 -5.019531 5.925781 -5.332031 6.25 -5.53125 C 6.570312 -5.726562 6.953125 -5.828125 7.390625 -5.828125 C 7.984375 -5.828125 8.441406 -5.617188 8.765625 -5.203125 C 9.085938 -4.785156 9.25 -4.195312 9.25 -3.4375 L 9.25 0 L 8.3125 0 L 8.3125 -3.40625 C 8.3125 -3.945312 8.210938 -4.347656 8.015625 -4.609375 C 7.828125 -4.878906 7.535156 -5.015625 7.140625 -5.015625 C 6.648438 -5.015625 6.265625 -4.851562 5.984375 -4.53125 C 5.703125 -4.207031 5.5625 -3.769531 5.5625 -3.21875 L 5.5625 0 L 4.625 0 L 4.625 -3.40625 C 4.625 -3.957031 4.523438 -4.363281 4.328125 -4.625 C 4.140625 -4.882812 3.84375 -5.015625 3.4375 -5.015625 C 2.96875 -5.015625 2.59375 -4.851562 2.3125 -4.53125 C 2.03125 -4.207031 1.890625 -3.769531 1.890625 -3.21875 L 1.890625 0 L 0.9375 0 L 0.9375 -5.6875 L 1.890625 -5.6875 L 1.890625 -4.8125 C 2.097656 -5.15625 2.347656 -5.410156 2.640625 -5.578125 C 2.941406 -5.742188 3.300781 -5.828125 3.71875 -5.828125 C 4.125 -5.828125 4.472656 -5.722656 4.765625 -5.515625 C 5.054688 -5.304688 5.269531 -5 5.40625 -4.59375 Z M 5.40625 -4.59375 "/>
</g>
<g id="glyph-0-17">
<path d="M 1.890625 -0.859375 L 1.890625 2.171875 L 0.9375 2.171875 L 0.9375 -5.6875 L 1.890625 -5.6875 L 1.890625 -4.828125 C 2.085938 -5.160156 2.332031 -5.410156 2.625 -5.578125 C 2.925781 -5.742188 3.285156 -5.828125 3.703125 -5.828125 C 4.390625 -5.828125 4.945312 -5.550781 5.375 -5 C 5.8125 -4.457031 6.03125 -3.738281 6.03125 -2.84375 C 6.03125 -1.945312 5.8125 -1.222656 5.375 -0.671875 C 4.945312 -0.128906 4.390625 0.140625 3.703125 0.140625 C 3.285156 0.140625 2.925781 0.0625 2.625 -0.09375 C 2.332031 -0.257812 2.085938 -0.515625 1.890625 -0.859375 Z M 5.0625 -2.84375 C 5.0625 -3.53125 4.921875 -4.066406 4.640625 -4.453125 C 4.359375 -4.847656 3.96875 -5.046875 3.46875 -5.046875 C 2.976562 -5.046875 2.59375 -4.847656 2.3125 -4.453125 C 2.03125 -4.066406 1.890625 -3.53125 1.890625 -2.84375 C 1.890625 -2.15625 2.03125 -1.613281 2.3125 -1.21875 C 2.59375 -0.832031 2.976562 -0.640625 3.46875 -0.640625 C 3.96875 -0.640625 4.359375 -0.832031 4.640625 -1.21875 C 4.921875 -1.613281 5.0625 -2.15625 5.0625 -2.84375 Z M 5.0625 -2.84375 "/>
</g>
<g id="glyph-0-18">
<path d="M 5.84375 -3.078125 L 5.84375 -2.625 L 1.546875 -2.625 C 1.585938 -1.976562 1.78125 -1.484375 2.125 -1.140625 C 2.476562 -0.804688 2.960938 -0.640625 3.578125 -0.640625 C 3.941406 -0.640625 4.289062 -0.679688 4.625 -0.765625 C 4.957031 -0.859375 5.289062 -0.992188 5.625 -1.171875 L 5.625 -0.296875 C 5.289062 -0.148438 4.945312 -0.0390625 4.59375 0.03125 C 4.238281 0.101562 3.882812 0.140625 3.53125 0.140625 C 2.625 0.140625 1.90625 -0.117188 1.375 -0.640625 C 0.84375 -1.171875 0.578125 -1.890625 0.578125 -2.796875 C 0.578125 -3.722656 0.828125 -4.457031 1.328125 -5 C 1.828125 -5.550781 2.503906 -5.828125 3.359375 -5.828125 C 4.128906 -5.828125 4.734375 -5.578125 5.171875 -5.078125 C 5.617188 -4.585938 5.84375 -3.921875 5.84375 -3.078125 Z M 4.90625 -3.359375 C 4.90625 -3.867188 4.765625 -4.273438 4.484375 -4.578125 C 4.203125 -4.878906 3.832031 -5.03125 3.375 -5.03125 C 2.851562 -5.03125 2.4375 -4.882812 2.125 -4.59375 C 1.8125 -4.300781 1.628906 -3.882812 1.578125 -3.34375 Z M 4.90625 -3.359375 "/>
</g>
<g id="glyph-0-19">
<path d="M 4.28125 -4.8125 C 4.175781 -4.875 4.0625 -4.921875 3.9375 -4.953125 C 3.8125 -4.984375 3.675781 -5 3.53125 -5 C 3 -5 2.59375 -4.828125 2.3125 -4.484375 C 2.03125 -4.140625 1.890625 -3.644531 1.890625 -3 L 1.890625 0 L 0.9375 0 L 0.9375 -5.6875 L 1.890625 -5.6875 L 1.890625 -4.8125 C 2.085938 -5.15625 2.34375 -5.410156 2.65625 -5.578125 C 2.96875 -5.742188 3.347656 -5.828125 3.796875 -5.828125 C 3.859375 -5.828125 3.925781 -5.820312 4 -5.8125 C 4.082031 -5.800781 4.171875 -5.789062 4.265625 -5.78125 Z M 4.28125 -4.8125 "/>
</g>
<g id="glyph-0-20">
<path d="M 0.578125 -5.6875 L 5.015625 -5.6875 L 5.015625 -4.84375 L 1.5 -0.75 L 5.015625 -0.75 L 5.015625 0 L 0.453125 0 L 0.453125 -0.859375 L 3.96875 -4.9375 L 0.578125 -4.9375 Z M 0.578125 -5.6875 "/>
</g>
<g id="glyph-0-21">
<path d="M 4.71875 -2.90625 C 4.71875 -3.582031 4.578125 -4.109375 4.296875 -4.484375 C 4.023438 -4.859375 3.632812 -5.046875 3.125 -5.046875 C 2.625 -5.046875 2.234375 -4.859375 1.953125 -4.484375 C 1.679688 -4.109375 1.546875 -3.582031 1.546875 -2.90625 C 1.546875 -2.238281 1.679688 -1.71875 1.953125 -1.34375 C 2.234375 -0.96875 2.625 -0.78125 3.125 -0.78125 C 3.632812 -0.78125 4.023438 -0.96875 4.296875 -1.34375 C 4.578125 -1.71875 4.71875 -2.238281 4.71875 -2.90625 Z M 5.65625 -0.703125 C 5.65625 0.265625 5.441406 0.984375 5.015625 1.453125 C 4.585938 1.929688 3.925781 2.171875 3.03125 2.171875 C 2.707031 2.171875 2.398438 2.144531 2.109375 2.09375 C 1.816406 2.039062 1.535156 1.960938 1.265625 1.859375 L 1.265625 0.953125 C 1.535156 1.097656 1.800781 1.207031 2.0625 1.28125 C 2.332031 1.351562 2.609375 1.390625 2.890625 1.390625 C 3.503906 1.390625 3.960938 1.226562 4.265625 0.90625 C 4.566406 0.59375 4.71875 0.113281 4.71875 -0.53125 L 4.71875 -1 C 4.53125 -0.664062 4.285156 -0.414062 3.984375 -0.25 C 3.679688 -0.0820312 3.320312 0 2.90625 0 C 2.207031 0 1.644531 -0.265625 1.21875 -0.796875 C 0.789062 -1.328125 0.578125 -2.03125 0.578125 -2.90625 C 0.578125 -3.789062 0.789062 -4.5 1.21875 -5.03125 C 1.644531 -5.5625 2.207031 -5.828125 2.90625 -5.828125 C 3.320312 -5.828125 3.679688 -5.742188 3.984375 -5.578125 C 4.285156 -5.410156 4.53125 -5.160156 4.71875 -4.828125 L 4.71875 -5.6875 L 5.65625 -5.6875 Z M 5.65625 -0.703125 "/>
</g>
<g id="glyph-0-22">
<path d="M 4.609375 -5.515625 L 4.609375 -4.640625 C 4.347656 -4.773438 4.070312 -4.875 3.78125 -4.9375 C 3.5 -5.007812 3.207031 -5.046875 2.90625 -5.046875 C 2.4375 -5.046875 2.085938 -4.972656 1.859375 -4.828125 C 1.628906 -4.691406 1.515625 -4.476562 1.515625 -4.1875 C 1.515625 -3.96875 1.59375 -3.796875 1.75 -3.671875 C 1.914062 -3.554688 2.253906 -3.441406 2.765625 -3.328125 L 3.078125 -3.25 C 3.742188 -3.113281 4.210938 -2.914062 4.484375 -2.65625 C 4.765625 -2.394531 4.90625 -2.03125 4.90625 -1.5625 C 4.90625 -1.039062 4.695312 -0.625 4.28125 -0.3125 C 3.863281 -0.0078125 3.289062 0.140625 2.5625 0.140625 C 2.257812 0.140625 1.941406 0.109375 1.609375 0.046875 C 1.273438 -0.00390625 0.925781 -0.0859375 0.5625 -0.203125 L 0.5625 -1.171875 C 0.90625 -0.992188 1.242188 -0.859375 1.578125 -0.765625 C 1.921875 -0.679688 2.253906 -0.640625 2.578125 -0.640625 C 3.015625 -0.640625 3.351562 -0.710938 3.59375 -0.859375 C 3.832031 -1.015625 3.953125 -1.226562 3.953125 -1.5 C 3.953125 -1.75 3.863281 -1.941406 3.6875 -2.078125 C 3.519531 -2.210938 3.148438 -2.34375 2.578125 -2.46875 L 2.25 -2.546875 C 1.664062 -2.671875 1.242188 -2.859375 0.984375 -3.109375 C 0.734375 -3.359375 0.609375 -3.707031 0.609375 -4.15625 C 0.609375 -4.6875 0.796875 -5.097656 1.171875 -5.390625 C 1.554688 -5.679688 2.097656 -5.828125 2.796875 -5.828125 C 3.140625 -5.828125 3.460938 -5.800781 3.765625 -5.75 C 4.066406 -5.695312 4.347656 -5.617188 4.609375 -5.515625 Z M 4.609375 -5.515625 "/>
</g>
<g id="glyph-0-23">
<path d="M 4.625 -3.5625 C 4.84375 -3.476562 5.054688 -3.316406 5.265625 -3.078125 C 5.472656 -2.835938 5.679688 -2.503906 5.890625 -2.078125 L 6.9375 0 L 5.828125 0 L 4.859375 -1.953125 C 4.609375 -2.453125 4.363281 -2.785156 4.125 -2.953125 C 3.894531 -3.117188 3.578125 -3.203125 3.171875 -3.203125 L 2.046875 -3.203125 L 2.046875 0 L 1.015625 0 L 1.015625 -7.59375 L 3.34375 -7.59375 C 4.207031 -7.59375 4.851562 -7.410156 5.28125 -7.046875 C 5.707031 -6.679688 5.921875 -6.132812 5.921875 -5.40625 C 5.921875 -4.925781 5.804688 -4.523438 5.578125 -4.203125 C 5.359375 -3.890625 5.039062 -3.675781 4.625 -3.5625 Z M 2.046875 -6.75 L 2.046875 -4.046875 L 3.34375 -4.046875 C 3.832031 -4.046875 4.203125 -4.160156 4.453125 -4.390625 C 4.710938 -4.617188 4.84375 -4.957031 4.84375 -5.40625 C 4.84375 -5.84375 4.710938 -6.175781 4.453125 -6.40625 C 4.203125 -6.632812 3.832031 -6.75 3.34375 -6.75 Z M 2.046875 -6.75 "/>
</g>
<g id="glyph-0-24">
<path d="M 5.71875 -3.4375 L 5.71875 0 L 4.78125 0 L 4.78125 -3.40625 C 4.78125 -3.945312 4.671875 -4.347656 4.453125 -4.609375 C 4.242188 -4.878906 3.929688 -5.015625 3.515625 -5.015625 C 3.015625 -5.015625 2.617188 -4.851562 2.328125 -4.53125 C 2.035156 -4.207031 1.890625 -3.769531 1.890625 -3.21875 L 1.890625 0 L 0.9375 0 L 0.9375 -7.90625 L 1.890625 -7.90625 L 1.890625 -4.8125 C 2.109375 -5.144531 2.367188 -5.394531 2.671875 -5.5625 C 2.972656 -5.738281 3.320312 -5.828125 3.71875 -5.828125 C 4.375 -5.828125 4.867188 -5.625 5.203125 -5.21875 C 5.546875 -4.8125 5.71875 -4.21875 5.71875 -3.4375 Z M 5.71875 -3.4375 "/>
</g>
<g id="glyph-0-25">
<path d="M 4.71875 -4.828125 L 4.71875 -7.90625 L 5.65625 -7.90625 L 5.65625 0 L 4.71875 0 L 4.71875 -0.859375 C 4.53125 -0.515625 4.285156 -0.257812 3.984375 -0.09375 C 3.679688 0.0625 3.320312 0.140625 2.90625 0.140625 C 2.21875 0.140625 1.65625 -0.128906 1.21875 -0.671875 C 0.789062 -1.222656 0.578125 -1.945312 0.578125 -2.84375 C 0.578125 -3.738281 0.789062 -4.457031 1.21875 -5 C 1.65625 -5.550781 2.21875 -5.828125 2.90625 -5.828125 C 3.320312 -5.828125 3.679688 -5.742188 3.984375 -5.578125 C 4.285156 -5.410156 4.53125 -5.160156 4.71875 -4.828125 Z M 1.546875 -2.84375 C 1.546875 -2.15625 1.6875 -1.613281 1.96875 -1.21875 C 2.25 -0.832031 2.632812 -0.640625 3.125 -0.640625 C 3.625 -0.640625 4.015625 -0.832031 4.296875 -1.21875 C 4.578125 -1.613281 4.71875 -2.15625 4.71875 -2.84375 C 4.71875 -3.53125 4.578125 -4.066406 4.296875 -4.453125 C 4.015625 -4.847656 3.625 -5.046875 3.125 -5.046875 C 2.632812 -5.046875 2.25 -4.847656 1.96875 -4.453125 C 1.6875 -4.066406 1.546875 -3.53125 1.546875 -2.84375 Z M 1.546875 -2.84375 "/>
</g>
<g id="glyph-1-0">
<path d="M -0.03125 -9.484375 L 7.984375 -9.484375 L 7.984375 -8.390625 L 4.609375 -8.390625 L 4.609375 0 L 3.328125 0 L 3.328125 -8.390625 L -0.03125 -8.390625 Z M -0.03125 -9.484375 "/>
</g>
<g id="glyph-1-1">
<path d="M 5.34375 -6.015625 C 5.207031 -6.085938 5.0625 -6.140625 4.90625 -6.171875 C 4.757812 -6.210938 4.59375 -6.234375 4.40625 -6.234375 C 3.75 -6.234375 3.242188 -6.019531 2.890625 -5.59375 C 2.535156 -5.164062 2.359375 -4.550781 2.359375 -3.75 L 2.359375 0 L 1.1875 0 L 1.1875 -7.109375 L 2.359375 -7.109375 L 2.359375 -6 C 2.597656 -6.4375 2.914062 -6.757812 3.3125 -6.96875 C 3.707031 -7.175781 4.1875 -7.28125 4.75 -7.28125 C 4.832031 -7.28125 4.921875 -7.273438 5.015625 -7.265625 C 5.109375 -7.253906 5.21875 -7.238281 5.34375 -7.21875 Z M 5.34375 -6.015625 "/>
</g>
<g id="glyph-1-2">
<path d="M 7.3125 -3.84375 L 7.3125 -3.28125 L 1.9375 -3.28125 C 1.988281 -2.46875 2.226562 -1.851562 2.65625 -1.4375 C 3.09375 -1.019531 3.695312 -0.8125 4.46875 -0.8125 C 4.914062 -0.8125 5.347656 -0.863281 5.765625 -0.96875 C 6.191406 -1.082031 6.613281 -1.25 7.03125 -1.46875 L 7.03125 -0.359375 C 6.613281 -0.179688 6.179688 -0.046875 5.734375 0.046875 C 5.296875 0.140625 4.851562 0.1875 4.40625 0.1875 C 3.269531 0.1875 2.367188 -0.140625 1.703125 -0.796875 C 1.046875 -1.460938 0.71875 -2.359375 0.71875 -3.484375 C 0.71875 -4.648438 1.03125 -5.570312 1.65625 -6.25 C 2.289062 -6.9375 3.140625 -7.28125 4.203125 -7.28125 C 5.160156 -7.28125 5.914062 -6.972656 6.46875 -6.359375 C 7.03125 -5.742188 7.3125 -4.90625 7.3125 -3.84375 Z M 6.140625 -4.1875 C 6.128906 -4.820312 5.945312 -5.332031 5.59375 -5.71875 C 5.25 -6.101562 4.789062 -6.296875 4.21875 -6.296875 C 3.5625 -6.296875 3.035156 -6.109375 2.640625 -5.734375 C 2.253906 -5.367188 2.03125 -4.851562 1.96875 -4.1875 Z M 6.140625 -4.1875 "/>
</g>
<g id="glyph-1-3">
</g>
<g id="glyph-1-4">
<path d="M 4.4375 -8.21875 L 2.703125 -3.5 L 6.1875 -3.5 Z M 3.71875 -9.484375 L 5.171875 -9.484375 L 8.78125 0 L 7.453125 0 L 6.59375 -2.4375 L 2.3125 -2.4375 L 1.453125 0 L 0.109375 0 Z M 3.71875 -9.484375 "/>
</g>
<g id="glyph-1-5">
<path d="M 5.90625 -3.640625 C 5.90625 -4.484375 5.726562 -5.132812 5.375 -5.59375 C 5.03125 -6.0625 4.539062 -6.296875 3.90625 -6.296875 C 3.28125 -6.296875 2.789062 -6.0625 2.4375 -5.59375 C 2.09375 -5.132812 1.921875 -4.484375 1.921875 -3.640625 C 1.921875 -2.796875 2.09375 -2.140625 2.4375 -1.671875 C 2.789062 -1.210938 3.28125 -0.984375 3.90625 -0.984375 C 4.539062 -0.984375 5.03125 -1.210938 5.375 -1.671875 C 5.726562 -2.140625 5.90625 -2.796875 5.90625 -3.640625 Z M 7.078125 -0.875 C 7.078125 0.332031 6.804688 1.226562 6.265625 1.8125 C 5.722656 2.40625 4.898438 2.703125 3.796875 2.703125 C 3.390625 2.703125 3.003906 2.671875 2.640625 2.609375 C 2.273438 2.546875 1.921875 2.453125 1.578125 2.328125 L 1.578125 1.1875 C 1.921875 1.375 2.257812 1.507812 2.59375 1.59375 C 2.925781 1.6875 3.265625 1.734375 3.609375 1.734375 C 4.378906 1.734375 4.953125 1.535156 5.328125 1.140625 C 5.710938 0.742188 5.90625 0.140625 5.90625 -0.671875 L 5.90625 -1.25 C 5.664062 -0.832031 5.351562 -0.519531 4.96875 -0.3125 C 4.59375 -0.101562 4.144531 0 3.625 0 C 2.75 0 2.046875 -0.332031 1.515625 -1 C 0.984375 -1.664062 0.71875 -2.546875 0.71875 -3.640625 C 0.71875 -4.734375 0.984375 -5.613281 1.515625 -6.28125 C 2.046875 -6.945312 2.75 -7.28125 3.625 -7.28125 C 4.144531 -7.28125 4.59375 -7.175781 4.96875 -6.96875 C 5.351562 -6.757812 5.664062 -6.445312 5.90625 -6.03125 L 5.90625 -7.109375 L 7.078125 -7.109375 Z M 7.078125 -0.875 "/>
</g>
<g id="glyph-1-6">
<path d="M 1.125 -9.875 L 3.8125 -9.875 L 3.8125 -8.96875 L 2.28125 -8.96875 L 2.28125 0.8125 L 3.8125 0.8125 L 3.8125 1.71875 L 1.125 1.71875 Z M 1.125 -9.875 "/>
</g>
<g id="glyph-1-7">
<path d="M 4.1875 0.65625 C 3.851562 1.507812 3.53125 2.0625 3.21875 2.3125 C 2.90625 2.570312 2.488281 2.703125 1.96875 2.703125 L 1.03125 2.703125 L 1.03125 1.734375 L 1.71875 1.734375 C 2.039062 1.734375 2.289062 1.65625 2.46875 1.5 C 2.644531 1.34375 2.835938 0.984375 3.046875 0.421875 L 3.265625 -0.109375 L 0.390625 -7.109375 L 1.625 -7.109375 L 3.84375 -1.546875 L 6.0625 -7.109375 L 7.3125 -7.109375 Z M 4.1875 0.65625 "/>
</g>
<g id="glyph-1-8">
<path d="M 3.953125 -9.875 L 3.953125 1.71875 L 1.265625 1.71875 L 1.265625 0.8125 L 2.78125 0.8125 L 2.78125 -8.96875 L 1.265625 -8.96875 L 1.265625 -9.875 Z M 3.953125 -9.875 "/>
</g>
<g id="glyph-1-9">
<path d="M 1.28125 -9.484375 L 3.1875 -9.484375 L 5.609375 -3.03125 L 8.03125 -9.484375 L 9.953125 -9.484375 L 9.953125 0 L 8.703125 0 L 8.703125 -8.328125 L 6.25 -1.828125 L 4.96875 -1.828125 L 2.515625 -8.328125 L 2.515625 0 L 1.28125 0 Z M 1.28125 -9.484375 "/>
</g>
<g id="glyph-1-10">
<path d="M 3.984375 -6.296875 C 3.359375 -6.296875 2.863281 -6.050781 2.5 -5.5625 C 2.132812 -5.070312 1.953125 -4.398438 1.953125 -3.546875 C 1.953125 -2.691406 2.128906 -2.019531 2.484375 -1.53125 C 2.847656 -1.050781 3.347656 -0.8125 3.984375 -0.8125 C 4.597656 -0.8125 5.085938 -1.054688 5.453125 -1.546875 C 5.816406 -2.035156 6 -2.703125 6 -3.546875 C 6 -4.390625 5.816406 -5.054688 5.453125 -5.546875 C 5.085938 -6.046875 4.597656 -6.296875 3.984375 -6.296875 Z M 3.984375 -7.28125 C 4.992188 -7.28125 5.789062 -6.945312 6.375 -6.28125 C 6.957031 -5.625 7.25 -4.710938 7.25 -3.546875 C 7.25 -2.378906 6.957031 -1.460938 6.375 -0.796875 C 5.789062 -0.140625 4.992188 0.1875 3.984375 0.1875 C 2.960938 0.1875 2.160156 -0.140625 1.578125 -0.796875 C 1.003906 -1.460938 0.71875 -2.378906 0.71875 -3.546875 C 0.71875 -4.710938 1.003906 -5.625 1.578125 -6.28125 C 2.160156 -6.945312 2.960938 -7.28125 3.984375 -7.28125 Z M 3.984375 -7.28125 "/>
</g>
<g id="glyph-1-11">
<path d="M 5.90625 -6.03125 L 5.90625 -9.875 L 7.078125 -9.875 L 7.078125 0 L 5.90625 0 L 5.90625 -1.0625 C 5.65625 -0.644531 5.34375 -0.332031 4.96875 -0.125 C 4.59375 0.0820312 4.144531 0.1875 3.625 0.1875 C 2.769531 0.1875 2.070312 -0.15625 1.53125 -0.84375 C 0.988281 -1.53125 0.71875 -2.429688 0.71875 -3.546875 C 0.71875 -4.660156 0.988281 -5.5625 1.53125 -6.25 C 2.070312 -6.9375 2.769531 -7.28125 3.625 -7.28125 C 4.144531 -7.28125 4.59375 -7.175781 4.96875 -6.96875 C 5.34375 -6.769531 5.65625 -6.457031 5.90625 -6.03125 Z M 1.921875 -3.546875 C 1.921875 -2.691406 2.097656 -2.019531 2.453125 -1.53125 C 2.804688 -1.039062 3.289062 -0.796875 3.90625 -0.796875 C 4.53125 -0.796875 5.019531 -1.039062 5.375 -1.53125 C 5.726562 -2.019531 5.90625 -2.691406 5.90625 -3.546875 C 5.90625 -4.410156 5.726562 -5.082031 5.375 -5.5625 C 5.019531 -6.050781 4.53125 -6.296875 3.90625 -6.296875 C 3.289062 -6.296875 2.804688 -6.050781 2.453125 -5.5625 C 2.097656 -5.082031 1.921875 -4.410156 1.921875 -3.546875 Z M 1.921875 -3.546875 "/>
</g>
<g id="glyph-1-12">
<path d="M 1.21875 -9.875 L 2.390625 -9.875 L 2.390625 0 L 1.21875 0 Z M 1.21875 -9.875 "/>
</g>
<g id="glyph-2-0">
<path d="M -9.484375 0.03125 L -9.484375 -7.984375 L -8.390625 -7.984375 L -8.390625 -4.609375 L 0 -4.609375 L 0 -3.328125 L -8.390625 -3.328125 L -8.390625 0.03125 Z M -9.484375 0.03125 "/>
</g>
<g id="glyph-2-1">
<path d="M -6.015625 -5.34375 C -6.085938 -5.207031 -6.140625 -5.0625 -6.171875 -4.90625 C -6.210938 -4.757812 -6.234375 -4.59375 -6.234375 -4.40625 C -6.234375 -3.75 -6.019531 -3.242188 -5.59375 -2.890625 C -5.164062 -2.535156 -4.550781 -2.359375 -3.75 -2.359375 L 0 -2.359375 L 0 -1.1875 L -7.109375 -1.1875 L -7.109375 -2.359375 L -6 -2.359375 C -6.4375 -2.597656 -6.757812 -2.914062 -6.96875 -3.3125 C -7.175781 -3.707031 -7.28125 -4.1875 -7.28125 -4.75 C -7.28125 -4.832031 -7.273438 -4.921875 -7.265625 -5.015625 C -7.253906 -5.109375 -7.238281 -5.21875 -7.21875 -5.34375 Z M -6.015625 -5.34375 "/>
</g>
<g id="glyph-2-2">
<path d="M -3.84375 -7.3125 L -3.28125 -7.3125 L -3.28125 -1.9375 C -2.46875 -1.988281 -1.851562 -2.226562 -1.4375 -2.65625 C -1.019531 -3.09375 -0.8125 -3.695312 -0.8125 -4.46875 C -0.8125 -4.914062 -0.863281 -5.347656 -0.96875 -5.765625 C -1.082031 -6.191406 -1.25 -6.613281 -1.46875 -7.03125 L -0.359375 -7.03125 C -0.179688 -6.613281 -0.046875 -6.179688 0.046875 -5.734375 C 0.140625 -5.296875 0.1875 -4.851562 0.1875 -4.40625 C 0.1875 -3.269531 -0.140625 -2.367188 -0.796875 -1.703125 C -1.460938 -1.046875 -2.359375 -0.71875 -3.484375 -0.71875 C -4.648438 -0.71875 -5.570312 -1.03125 -6.25 -1.65625 C -6.9375 -2.289062 -7.28125 -3.140625 -7.28125 -4.203125 C -7.28125 -5.160156 -6.972656 -5.914062 -6.359375 -6.46875 C -5.742188 -7.03125 -4.90625 -7.3125 -3.84375 -7.3125 Z M -4.1875 -6.140625 C -4.820312 -6.128906 -5.332031 -5.945312 -5.71875 -5.59375 C -6.101562 -5.25 -6.296875 -4.789062 -6.296875 -4.21875 C -6.296875 -3.5625 -6.109375 -3.035156 -5.734375 -2.640625 C -5.367188 -2.253906 -4.851562 -2.03125 -4.1875 -1.96875 Z M -4.1875 -6.140625 "/>
</g>
<g id="glyph-2-3">
</g>
<g id="glyph-2-4">
<path d="M -9.484375 -1.28125 L -9.484375 -2.5625 L -5.59375 -2.5625 L -5.59375 -7.21875 L -9.484375 -7.21875 L -9.484375 -8.5 L 0 -8.5 L 0 -7.21875 L -4.515625 -7.21875 L -4.515625 -2.5625 L 0 -2.5625 L 0 -1.28125 Z M -9.484375 -1.28125 "/>
</g>
<g id="glyph-2-5">
<path d="M -7.109375 -1.21875 L -7.109375 -2.390625 L 0 -2.390625 L 0 -1.21875 Z M -9.875 -1.21875 L -9.875 -2.390625 L -8.390625 -2.390625 L -8.390625 -1.21875 Z M -9.875 -1.21875 "/>
</g>
<g id="glyph-2-6">
<path d="M -3.640625 -5.90625 C -4.484375 -5.90625 -5.132812 -5.726562 -5.59375 -5.375 C -6.0625 -5.03125 -6.296875 -4.539062 -6.296875 -3.90625 C -6.296875 -3.28125 -6.0625 -2.789062 -5.59375 -2.4375 C -5.132812 -2.09375 -4.484375 -1.921875 -3.640625 -1.921875 C -2.796875 -1.921875 -2.140625 -2.09375 -1.671875 -2.4375 C -1.210938 -2.789062 -0.984375 -3.28125 -0.984375 -3.90625 C -0.984375 -4.539062 -1.210938 -5.03125 -1.671875 -5.375 C -2.140625 -5.726562 -2.796875 -5.90625 -3.640625 -5.90625 Z M -0.875 -7.078125 C 0.332031 -7.078125 1.226562 -6.804688 1.8125 -6.265625 C 2.40625 -5.722656 2.703125 -4.898438 2.703125 -3.796875 C 2.703125 -3.390625 2.671875 -3.003906 2.609375 -2.640625 C 2.546875 -2.273438 2.453125 -1.921875 2.328125 -1.578125 L 1.1875 -1.578125 C 1.375 -1.921875 1.507812 -2.257812 1.59375 -2.59375 C 1.6875 -2.925781 1.734375 -3.265625 1.734375 -3.609375 C 1.734375 -4.378906 1.535156 -4.953125 1.140625 -5.328125 C 0.742188 -5.710938 0.140625 -5.90625 -0.671875 -5.90625 L -1.25 -5.90625 C -0.832031 -5.664062 -0.519531 -5.351562 -0.3125 -4.96875 C -0.101562 -4.59375 0 -4.144531 0 -3.625 C 0 -2.75 -0.332031 -2.046875 -1 -1.515625 C -1.664062 -0.984375 -2.546875 -0.71875 -3.640625 -0.71875 C -4.734375 -0.71875 -5.613281 -0.984375 -6.28125 -1.515625 C -6.945312 -2.046875 -7.28125 -2.75 -7.28125 -3.625 C -7.28125 -4.144531 -7.175781 -4.59375 -6.96875 -4.96875 C -6.757812 -5.351562 -6.445312 -5.664062 -6.03125 -5.90625 L -7.109375 -5.90625 L -7.109375 -7.078125 Z M -0.875 -7.078125 "/>
</g>
<g id="glyph-2-7">
<path d="M -4.296875 -7.140625 L 0 -7.140625 L 0 -5.96875 L -4.25 -5.96875 C -4.925781 -5.96875 -5.429688 -5.835938 -5.765625 -5.578125 C -6.097656 -5.316406 -6.265625 -4.921875 -6.265625 -4.390625 C -6.265625 -3.765625 -6.0625 -3.269531 -5.65625 -2.90625 C -5.257812 -2.539062 -4.710938 -2.359375 -4.015625 -2.359375 L 0 -2.359375 L 0 -1.1875 L -9.875 -1.1875 L -9.875 -2.359375 L -6 -2.359375 C -6.425781 -2.640625 -6.742188 -2.96875 -6.953125 -3.34375 C -7.171875 -3.71875 -7.28125 -4.15625 -7.28125 -4.65625 C -7.28125 -5.46875 -7.023438 -6.082031 -6.515625 -6.5 C -6.015625 -6.925781 -5.273438 -7.140625 -4.296875 -7.140625 Z M -4.296875 -7.140625 "/>
</g>
<g id="glyph-2-8">
<path d="M -9.125 -2.375 L -7.109375 -2.375 L -7.109375 -4.78125 L -6.203125 -4.78125 L -6.203125 -2.375 L -2.34375 -2.375 C -1.757812 -2.375 -1.382812 -2.453125 -1.21875 -2.609375 C -1.0625 -2.773438 -0.984375 -3.101562 -0.984375 -3.59375 L -0.984375 -4.78125 L 0 -4.78125 L 0 -3.59375 C 0 -2.6875 -0.164062 -2.0625 -0.5 -1.71875 C -0.84375 -1.375 -1.457031 -1.203125 -2.34375 -1.203125 L -6.203125 -1.203125 L -6.203125 -0.34375 L -7.109375 -0.34375 L -7.109375 -1.203125 L -9.125 -1.203125 Z M -9.125 -2.375 "/>
</g>
<g id="glyph-2-9">
<path d="M -9.875 -1.125 L -9.875 -3.8125 L -8.96875 -3.8125 L -8.96875 -2.28125 L 0.8125 -2.28125 L 0.8125 -3.8125 L 1.71875 -3.8125 L 1.71875 -1.125 Z M -9.875 -1.125 "/>
</g>
<g id="glyph-2-10">
<path d="M -5.75 -6.765625 C -6.269531 -7.054688 -6.65625 -7.40625 -6.90625 -7.8125 C -7.15625 -8.21875 -7.28125 -8.695312 -7.28125 -9.25 C -7.28125 -9.988281 -7.019531 -10.554688 -6.5 -10.953125 C -5.976562 -11.359375 -5.242188 -11.5625 -4.296875 -11.5625 L 0 -11.5625 L 0 -10.390625 L -4.25 -10.390625 C -4.9375 -10.390625 -5.441406 -10.265625 -5.765625 -10.015625 C -6.097656 -9.773438 -6.265625 -9.410156 -6.265625 -8.921875 C -6.265625 -8.316406 -6.0625 -7.835938 -5.65625 -7.484375 C -5.257812 -7.128906 -4.710938 -6.953125 -4.015625 -6.953125 L 0 -6.953125 L 0 -5.78125 L -4.25 -5.78125 C -4.9375 -5.78125 -5.441406 -5.660156 -5.765625 -5.421875 C -6.097656 -5.179688 -6.265625 -4.804688 -6.265625 -4.296875 C -6.265625 -3.703125 -6.0625 -3.226562 -5.65625 -2.875 C -5.25 -2.53125 -4.703125 -2.359375 -4.015625 -2.359375 L 0 -2.359375 L 0 -1.1875 L -7.109375 -1.1875 L -7.109375 -2.359375 L -6 -2.359375 C -6.4375 -2.617188 -6.757812 -2.9375 -6.96875 -3.3125 C -7.175781 -3.6875 -7.28125 -4.128906 -7.28125 -4.640625 C -7.28125 -5.160156 -7.148438 -5.597656 -6.890625 -5.953125 C -6.628906 -6.316406 -6.25 -6.585938 -5.75 -6.765625 Z M -5.75 -6.765625 "/>
</g>
<g id="glyph-2-11">
<path d="M -9.875 -3.953125 L 1.71875 -3.953125 L 1.71875 -1.265625 L 0.8125 -1.265625 L 0.8125 -2.78125 L -8.96875 -2.78125 L -8.96875 -1.265625 L -9.875 -1.265625 Z M -9.875 -3.953125 "/>
</g>
</g>
<clipPath id="clip-0">
<path clip-rule="nonzero" d="M 40.152344 25.246094 L 227.257812 25.246094 L 227.257812 254.847656 L 40.152344 254.847656 Z M 40.152344 25.246094 "/>
</clipPath>
<clipPath id="clip-1">
<path clip-rule="nonzero" d="M 40.152344 216 L 227.257812 216 L 227.257812 218 L 40.152344 218 Z M 40.152344 216 "/>
</clipPath>
<clipPath id="clip-2">
<path clip-rule="nonzero" d="M 40.152344 162 L 227.257812 162 L 227.257812 163 L 40.152344 163 Z M 40.152344 162 "/>
</clipPath>
<clipPath id="clip-3">
<path clip-rule="nonzero" d="M 40.152344 107 L 227.257812 107 L 227.257812 108 L 40.152344 108 Z M 40.152344 107 "/>
</clipPath>
<clipPath id="clip-4">
<path clip-rule="nonzero" d="M 40.152344 52 L 227.257812 52 L 227.257812 53 L 40.152344 53 Z M 40.152344 52 "/>
</clipPath>
<clipPath id="clip-5">
<path clip-rule="nonzero" d="M 48 25.246094 L 49 25.246094 L 49 254.847656 L 48 254.847656 Z M 48 25.246094 "/>
</clipPath>
<clipPath id="clip-6">
<path clip-rule="nonzero" d="M 100 25.246094 L 102 25.246094 L 102 254.847656 L 100 254.847656 Z M 100 25.246094 "/>
</clipPath>
<clipPath id="clip-7">
<path clip-rule="nonzero" d="M 153 25.246094 L 154 25.246094 L 154 254.847656 L 153 254.847656 Z M 153 25.246094 "/>
</clipPath>
<clipPath id="clip-8">
<path clip-rule="nonzero" d="M 205 25.246094 L 206 25.246094 L 206 254.847656 L 205 254.847656 Z M 205 25.246094 "/>
</clipPath>
<clipPath id="clip-9">
<path clip-rule="nonzero" d="M 40.152344 244 L 227.257812 244 L 227.257812 245 L 40.152344 245 Z M 40.152344 244 "/>
</clipPath>
<clipPath id="clip-10">
<path clip-rule="nonzero" d="M 40.152344 189 L 227.257812 189 L 227.257812 190 L 40.152344 190 Z M 40.152344 189 "/>
</clipPath>
<clipPath id="clip-11">
<path clip-rule="nonzero" d="M 40.152344 134 L 227.257812 134 L 227.257812 136 L 40.152344 136 Z M 40.152344 134 "/>
</clipPath>
<clipPath id="clip-12">
<path clip-rule="nonzero" d="M 40.152344 79 L 227.257812 79 L 227.257812 81 L 40.152344 81 Z M 40.152344 79 "/>
</clipPath>
<clipPath id="clip-13">
<path clip-rule="nonzero" d="M 40.152344 25.246094 L 227.257812 25.246094 L 227.257812 26 L 40.152344 26 Z M 40.152344 25.246094 "/>
</clipPath>
<clipPath id="clip-14">
<path clip-rule="nonzero" d="M 74 25.246094 L 76 25.246094 L 76 254.847656 L 74 254.847656 Z M 74 25.246094 "/>
</clipPath>
<clipPath id="clip-15">
<path clip-rule="nonzero" d="M 126 25.246094 L 128 25.246094 L 128 254.847656 L 126 254.847656 Z M 126 25.246094 "/>
</clipPath>
<clipPath id="clip-16">
<path clip-rule="nonzero" d="M 179 25.246094 L 180 25.246094 L 180 254.847656 L 179 254.847656 Z M 179 25.246094 "/>
</clipPath>
<clipPath id="clip-17">
<path clip-rule="nonzero" d="M 40.152344 25.246094 L 227.257812 25.246094 L 227.257812 254.847656 L 40.152344 254.847656 Z M 40.152344 25.246094 "/>
</clipPath>
<clipPath id="clip-18">
<path clip-rule="nonzero" d="M 232.738281 25.246094 L 419.84375 25.246094 L 419.84375 254.847656 L 232.738281 254.847656 Z M 232.738281 25.246094 "/>
</clipPath>
<clipPath id="clip-19">
<path clip-rule="nonzero" d="M 232.738281 216 L 419.84375 216 L 419.84375 218 L 232.738281 218 Z M 232.738281 216 "/>
</clipPath>
<clipPath id="clip-20">
<path clip-rule="nonzero" d="M 232.738281 162 L 419.84375 162 L 419.84375 163 L 232.738281 163 Z M 232.738281 162 "/>
</clipPath>
<clipPath id="clip-21">
<path clip-rule="nonzero" d="M 232.738281 107 L 419.84375 107 L 419.84375 108 L 232.738281 108 Z M 232.738281 107 "/>
</clipPath>
<clipPath id="clip-22">
<path clip-rule="nonzero" d="M 232.738281 52 L 419.84375 52 L 419.84375 53 L 232.738281 53 Z M 232.738281 52 "/>
</clipPath>
<clipPath id="clip-23">
<path clip-rule="nonzero" d="M 241 25.246094 L 242 25.246094 L 242 254.847656 L 241 254.847656 Z M 241 25.246094 "/>
</clipPath>
<clipPath id="clip-24">
<path clip-rule="nonzero" d="M 293 25.246094 L 294 25.246094 L 294 254.847656 L 293 254.847656 Z M 293 25.246094 "/>
</clipPath>
<clipPath id="clip-25">
<path clip-rule="nonzero" d="M 345 25.246094 L 347 25.246094 L 347 254.847656 L 345 254.847656 Z M 345 25.246094 "/>
</clipPath>
<clipPath id="clip-26">
<path clip-rule="nonzero" d="M 398 25.246094 L 399 25.246094 L 399 254.847656 L 398 254.847656 Z M 398 25.246094 "/>
</clipPath>
<clipPath id="clip-27">
<path clip-rule="nonzero" d="M 232.738281 244 L 419.84375 244 L 419.84375 245 L 232.738281 245 Z M 232.738281 244 "/>
</clipPath>
<clipPath id="clip-28">
<path clip-rule="nonzero" d="M 232.738281 189 L 419.84375 189 L 419.84375 190 L 232.738281 190 Z M 232.738281 189 "/>
</clipPath>
<clipPath id="clip-29">
<path clip-rule="nonzero" d="M 232.738281 134 L 419.84375 134 L 419.84375 136 L 232.738281 136 Z M 232.738281 134 "/>
</clipPath>
<clipPath id="clip-30">
<path clip-rule="nonzero" d="M 232.738281 79 L 419.84375 79 L 419.84375 81 L 232.738281 81 Z M 232.738281 79 "/>
</clipPath>
<clipPath id="clip-31">
<path clip-rule="nonzero" d="M 232.738281 25.246094 L 419.84375 25.246094 L 419.84375 26 L 232.738281 26 Z M 232.738281 25.246094 "/>
</clipPath>
<clipPath id="clip-32">
<path clip-rule="nonzero" d="M 267 25.246094 L 268 25.246094 L 268 254.847656 L 267 254.847656 Z M 267 25.246094 "/>
</clipPath>
<clipPath id="clip-33">
<path clip-rule="nonzero" d="M 319 25.246094 L 321 25.246094 L 321 254.847656 L 319 254.847656 Z M 319 25.246094 "/>
</clipPath>
<clipPath id="clip-34">
<path clip-rule="nonzero" d="M 371 25.246094 L 373 25.246094 L 373 254.847656 L 371 254.847656 Z M 371 25.246094 "/>
</clipPath>
<clipPath id="clip-35">
<path clip-rule="nonzero" d="M 232.738281 25.246094 L 419.84375 25.246094 L 419.84375 254.847656 L 232.738281 254.847656 Z M 232.738281 25.246094 "/>
</clipPath>
<clipPath id="clip-36">
<path clip-rule="nonzero" d="M 40.152344 5.480469 L 227.257812 5.480469 L 227.257812 25.246094 L 40.152344 25.246094 Z M 40.152344 5.480469 "/>
</clipPath>
<clipPath id="clip-37">
<path clip-rule="nonzero" d="M 232.738281 5.480469 L 419.84375 5.480469 L 419.84375 25.246094 L 232.738281 25.246094 Z M 232.738281 5.480469 "/>
</clipPath>
</defs>
<rect x="-52" y="-29.2" width="624" height="350.4" fill="rgb(100%, 100%, 100%)" fill-opacity="1"/>
<rect x="-52" y="-29.2" width="624" height="350.4" fill="rgb(100%, 100%, 100%)" fill-opacity="1"/>
<path fill="none" stroke-width="1.066978" stroke-linecap="round" stroke-linejoin="round" stroke="rgb(100%, 100%, 100%)" stroke-opacity="1" stroke-miterlimit="10" d="M 0 292 L 520 292 L 520 0 L 0 0 Z M 0 292 "/>
<g clip-path="url(#clip-0)">
<path fill-rule="nonzero" fill="rgb(100%, 100%, 100%)" fill-opacity="1" d="M 40.152344 254.847656 L 227.257812 254.847656 L 227.257812 25.246094 L 40.152344 25.246094 Z M 40.152344 254.847656 "/>
</g>
<g clip-path="url(#clip-1)">
<path fill="none" stroke-width="0.266745" stroke-linecap="butt" stroke-linejoin="round" stroke="rgb(87.058824%, 87.058824%, 87.058824%)" stroke-opacity="1" stroke-miterlimit="10" d="M 40.152344 217.019531 L 227.257812 217.019531 "/>
</g>
<g clip-path="url(#clip-2)">
<path fill="none" stroke-width="0.266745" stroke-linecap="butt" stroke-linejoin="round" stroke="rgb(87.058824%, 87.058824%, 87.058824%)" stroke-opacity="1" stroke-miterlimit="10" d="M 40.152344 162.234375 L 227.257812 162.234375 "/>
</g>
<g clip-path="url(#clip-3)">
<path fill="none" stroke-width="0.266745" stroke-linecap="butt" stroke-linejoin="round" stroke="rgb(87.058824%, 87.058824%, 87.058824%)" stroke-opacity="1" stroke-miterlimit="10" d="M 40.152344 107.449219 L 227.257812 107.449219 "/>
</g>
<g clip-path="url(#clip-4)">
<path fill="none" stroke-width="0.266745" stroke-linecap="butt" stroke-linejoin="round" stroke="rgb(87.058824%, 87.058824%, 87.058824%)" stroke-opacity="1" stroke-miterlimit="10" d="M 40.152344 52.667969 L 227.257812 52.667969 "/>
</g>
<g clip-path="url(#clip-5)">
<path fill="none" stroke-width="0.266745" stroke-linecap="butt" stroke-linejoin="round" stroke="rgb(87.058824%, 87.058824%, 87.058824%)" stroke-opacity="1" stroke-miterlimit="10" d="M 48.65625 254.847656 L 48.65625 25.246094 "/>
</g>
<g clip-path="url(#clip-6)">
<path fill="none" stroke-width="0.266745" stroke-linecap="butt" stroke-linejoin="round" stroke="rgb(87.058824%, 87.058824%, 87.058824%)" stroke-opacity="1" stroke-miterlimit="10" d="M 100.992188 254.847656 L 100.992188 25.246094 "/>
</g>
<g clip-path="url(#clip-7)">
<path fill="none" stroke-width="0.266745" stroke-linecap="butt" stroke-linejoin="round" stroke="rgb(87.058824%, 87.058824%, 87.058824%)" stroke-opacity="1" stroke-miterlimit="10" d="M 153.332031 254.847656 L 153.332031 25.246094 "/>
</g>
<g clip-path="url(#clip-8)">
<path fill="none" stroke-width="0.266745" stroke-linecap="butt" stroke-linejoin="round" stroke="rgb(87.058824%, 87.058824%, 87.058824%)" stroke-opacity="1" stroke-miterlimit="10" d="M 205.667969 254.847656 L 205.667969 25.246094 "/>
</g>
<g clip-path="url(#clip-9)">
<path fill="none" stroke-width="0.533489" stroke-linecap="butt" stroke-linejoin="round" stroke="rgb(87.058824%, 87.058824%, 87.058824%)" stroke-opacity="1" stroke-miterlimit="10" d="M 40.152344 244.414062 L 227.257812 244.414062 "/>
</g>
<g clip-path="url(#clip-10)">
<path fill="none" stroke-width="0.533489" stroke-linecap="butt" stroke-linejoin="round" stroke="rgb(87.058824%, 87.058824%, 87.058824%)" stroke-opacity="1" stroke-miterlimit="10" d="M 40.152344 189.628906 L 227.257812 189.628906 "/>
</g>
<g clip-path="url(#clip-11)">
<path fill="none" stroke-width="0.533489" stroke-linecap="butt" stroke-linejoin="round" stroke="rgb(87.058824%, 87.058824%, 87.058824%)" stroke-opacity="1" stroke-miterlimit="10" d="M 40.152344 134.84375 L 227.257812 134.84375 "/>
</g>
<g clip-path="url(#clip-12)">
<path fill="none" stroke-width="0.533489" stroke-linecap="butt" stroke-linejoin="round" stroke="rgb(87.058824%, 87.058824%, 87.058824%)" stroke-opacity="1" stroke-miterlimit="10" d="M 40.152344 80.058594 L 227.257812 80.058594 "/>
</g>
<g clip-path="url(#clip-13)">
<path fill="none" stroke-width="0.533489" stroke-linecap="butt" stroke-linejoin="round" stroke="rgb(87.058824%, 87.058824%, 87.058824%)" stroke-opacity="1" stroke-miterlimit="10" d="M 40.152344 25.273438 L 227.257812 25.273438 "/>
</g>
<g clip-path="url(#clip-14)">
<path fill="none" stroke-width="0.533489" stroke-linecap="butt" stroke-linejoin="round" stroke="rgb(87.058824%, 87.058824%, 87.058824%)" stroke-opacity="1" stroke-miterlimit="10" d="M 74.824219 254.847656 L 74.824219 25.246094 "/>
</g>
<g clip-path="url(#clip-15)">
<path fill="none" stroke-width="0.533489" stroke-linecap="butt" stroke-linejoin="round" stroke="rgb(87.058824%, 87.058824%, 87.058824%)" stroke-opacity="1" stroke-miterlimit="10" d="M 127.160156 254.847656 L 127.160156 25.246094 "/>
</g>
<g clip-path="url(#clip-16)">
<path fill="none" stroke-width="0.533489" stroke-linecap="butt" stroke-linejoin="round" stroke="rgb(87.058824%, 87.058824%, 87.058824%)" stroke-opacity="1" stroke-miterlimit="10" d="M 179.5 254.847656 L 179.5 25.246094 "/>
</g>
<path fill-rule="nonzero" fill="rgb(74.509804%, 74.509804%, 74.509804%)" fill-opacity="0.501961" stroke-width="0.708661" stroke-linecap="round" stroke-linejoin="round" stroke="rgb(74.509804%, 74.509804%, 74.509804%)" stroke-opacity="0.501961" stroke-miterlimit="10" d="M 50.609375 218.117188 C 50.609375 220.722656 46.699219 220.722656 46.699219 218.117188 C 46.699219 215.511719 50.609375 215.511719 50.609375 218.117188 "/>
<path fill-rule="nonzero" fill="rgb(74.509804%, 74.509804%, 74.509804%)" fill-opacity="0.501961" stroke-width="0.708661" stroke-linecap="round" stroke-linejoin="round" stroke="rgb(74.509804%, 74.509804%, 74.509804%)" stroke-opacity="0.501961" stroke-miterlimit="10" d="M 63.695312 192.367188 C 63.695312 194.972656 59.785156 194.972656 59.785156 192.367188 C 59.785156 189.761719 63.695312 189.761719 63.695312 192.367188 "/>
<path fill-rule="nonzero" fill="rgb(74.509804%, 74.509804%, 74.509804%)" fill-opacity="0.501961" stroke-width="0.708661" stroke-linecap="round" stroke-linejoin="round" stroke="rgb(74.509804%, 74.509804%, 74.509804%)" stroke-opacity="0.501961" stroke-miterlimit="10" d="M 76.777344 166.617188 C 76.777344 169.226562 72.871094 169.226562 72.871094 166.617188 C 72.871094 164.011719 76.777344 164.011719 76.777344 166.617188 "/>
<path fill-rule="nonzero" fill="rgb(74.509804%, 74.509804%, 74.509804%)" fill-opacity="0.501961" stroke-width="0.708661" stroke-linecap="round" stroke-linejoin="round" stroke="rgb(74.509804%, 74.509804%, 74.509804%)" stroke-opacity="0.501961" stroke-miterlimit="10" d="M 89.863281 141.417969 C 89.863281 144.023438 85.953125 144.023438 85.953125 141.417969 C 85.953125 138.8125 89.863281 138.8125 89.863281 141.417969 "/>
<path fill-rule="nonzero" fill="rgb(74.509804%, 74.509804%, 74.509804%)" fill-opacity="0.501961" stroke-width="0.708661" stroke-linecap="round" stroke-linejoin="round" stroke="rgb(74.509804%, 74.509804%, 74.509804%)" stroke-opacity="0.501961" stroke-miterlimit="10" d="M 102.949219 117.859375 C 102.949219 120.464844 99.039062 120.464844 99.039062 117.859375 C 99.039062 115.253906 102.949219 115.253906 102.949219 117.859375 "/>
<path fill-rule="nonzero" fill="rgb(74.509804%, 74.509804%, 74.509804%)" fill-opacity="0.501961" stroke-width="0.708661" stroke-linecap="round" stroke-linejoin="round" stroke="rgb(74.509804%, 74.509804%, 74.509804%)" stroke-opacity="0.501961" stroke-miterlimit="10" d="M 116.03125 100.875 C 116.03125 103.484375 112.121094 103.484375 112.121094 100.875 C 112.121094 98.269531 116.03125 98.269531 116.03125 100.875 "/>
<path fill-rule="nonzero" fill="rgb(74.509804%, 74.509804%, 74.509804%)" fill-opacity="0.501961" stroke-width="0.708661" stroke-linecap="round" stroke-linejoin="round" stroke="rgb(74.509804%, 74.509804%, 74.509804%)" stroke-opacity="0.501961" stroke-miterlimit="10" d="M 129.117188 89.921875 C 129.117188 92.527344 125.207031 92.527344 125.207031 89.921875 C 125.207031 87.3125 129.117188 87.3125 129.117188 89.921875 "/>
<path fill-rule="nonzero" fill="rgb(74.509804%, 74.509804%, 74.509804%)" fill-opacity="0.501961" stroke-width="0.708661" stroke-linecap="round" stroke-linejoin="round" stroke="rgb(74.509804%, 74.509804%, 74.509804%)" stroke-opacity="0.501961" stroke-miterlimit="10" d="M 142.199219 78.964844 C 142.199219 81.570312 138.292969 81.570312 138.292969 78.964844 C 138.292969 76.355469 142.199219 76.355469 142.199219 78.964844 "/>
<path fill-rule="nonzero" fill="rgb(74.509804%, 74.509804%, 74.509804%)" fill-opacity="0.501961" stroke-width="0.708661" stroke-linecap="round" stroke-linejoin="round" stroke="rgb(74.509804%, 74.509804%, 74.509804%)" stroke-opacity="0.501961" stroke-miterlimit="10" d="M 155.285156 68.007812 C 155.285156 70.613281 151.375 70.613281 151.375 68.007812 C 151.375 65.398438 155.285156 65.398438 155.285156 68.007812 "/>
<path fill-rule="nonzero" fill="rgb(74.509804%, 74.509804%, 74.509804%)" fill-opacity="0.501961" stroke-width="0.708661" stroke-linecap="round" stroke-linejoin="round" stroke="rgb(74.509804%, 74.509804%, 74.509804%)" stroke-opacity="0.501961" stroke-miterlimit="10" d="M 168.371094 60.882812 C 168.371094 63.492188 164.460938 63.492188 164.460938 60.882812 C 164.460938 58.277344 168.371094 58.277344 168.371094 60.882812 "/>
<path fill-rule="nonzero" fill="rgb(74.509804%, 74.509804%, 74.509804%)" fill-opacity="0.501961" stroke-width="0.708661" stroke-linecap="round" stroke-linejoin="round" stroke="rgb(74.509804%, 74.509804%, 74.509804%)" stroke-opacity="0.501961" stroke-miterlimit="10" d="M 181.453125 54.308594 C 181.453125 56.917969 177.542969 56.917969 177.542969 54.308594 C 177.542969 51.703125 181.453125 51.703125 181.453125 54.308594 "/>
<path fill-rule="nonzero" fill="rgb(74.509804%, 74.509804%, 74.509804%)" fill-opacity="0.501961" stroke-width="0.708661" stroke-linecap="round" stroke-linejoin="round" stroke="rgb(74.509804%, 74.509804%, 74.509804%)" stroke-opacity="0.501961" stroke-miterlimit="10" d="M 194.539062 49.925781 C 194.539062 52.535156 190.628906 52.535156 190.628906 49.925781 C 190.628906 47.320312 194.539062 47.320312 194.539062 49.925781 "/>
<path fill-rule="nonzero" fill="rgb(74.509804%, 74.509804%, 74.509804%)" fill-opacity="0.501961" stroke-width="0.708661" stroke-linecap="round" stroke-linejoin="round" stroke="rgb(74.509804%, 74.509804%, 74.509804%)" stroke-opacity="0.501961" stroke-miterlimit="10" d="M 207.621094 45.542969 C 207.621094 48.152344 203.714844 48.152344 203.714844 45.542969 C 203.714844 42.9375 207.621094 42.9375 207.621094 45.542969 "/>
<path fill-rule="nonzero" fill="rgb(74.509804%, 74.509804%, 74.509804%)" fill-opacity="0.501961" stroke-width="0.708661" stroke-linecap="round" stroke-linejoin="round" stroke="rgb(74.509804%, 74.509804%, 74.509804%)" stroke-opacity="0.501961" stroke-miterlimit="10" d="M 220.707031 41.160156 C 220.707031 43.769531 216.796875 43.769531 216.796875 41.160156 C 216.796875 38.554688 220.707031 38.554688 220.707031 41.160156 "/>
<path fill-rule="nonzero" fill="rgb(74.509804%, 74.509804%, 74.509804%)" fill-opacity="0.501961" stroke-width="0.708661" stroke-linecap="round" stroke-linejoin="round" stroke="rgb(74.509804%, 74.509804%, 74.509804%)" stroke-opacity="0.501961" stroke-miterlimit="10" d="M 50.609375 222.5 C 50.609375 225.105469 46.699219 225.105469 46.699219 222.5 C 46.699219 219.890625 50.609375 219.890625 50.609375 222.5 "/>
<path fill-rule="nonzero" fill="rgb(74.509804%, 74.509804%, 74.509804%)" fill-opacity="0.501961" stroke-width="0.708661" stroke-linecap="round" stroke-linejoin="round" stroke="rgb(74.509804%, 74.509804%, 74.509804%)" stroke-opacity="0.501961" stroke-miterlimit="10" d="M 63.695312 194.558594 C 63.695312 197.164062 59.785156 197.164062 59.785156 194.558594 C 59.785156 191.953125 63.695312 191.953125 63.695312 194.558594 "/>
<path fill-rule="nonzero" fill="rgb(74.509804%, 74.509804%, 74.509804%)" fill-opacity="0.501961" stroke-width="0.708661" stroke-linecap="round" stroke-linejoin="round" stroke="rgb(74.509804%, 74.509804%, 74.509804%)" stroke-opacity="0.501961" stroke-miterlimit="10" d="M 76.777344 166.617188 C 76.777344 169.226562 72.871094 169.226562 72.871094 166.617188 C 72.871094 164.011719 76.777344 164.011719 76.777344 166.617188 "/>
<path fill-rule="nonzero" fill="rgb(74.509804%, 74.509804%, 74.509804%)" fill-opacity="0.501961" stroke-width="0.708661" stroke-linecap="round" stroke-linejoin="round" stroke="rgb(74.509804%, 74.509804%, 74.509804%)" stroke-opacity="0.501961" stroke-miterlimit="10" d="M 89.863281 143.609375 C 89.863281 146.214844 85.953125 146.214844 85.953125 143.609375 C 85.953125 141.003906 89.863281 141.003906 89.863281 143.609375 "/>
<path fill-rule="nonzero" fill="rgb(74.509804%, 74.509804%, 74.509804%)" fill-opacity="0.501961" stroke-width="0.708661" stroke-linecap="round" stroke-linejoin="round" stroke="rgb(74.509804%, 74.509804%, 74.509804%)" stroke-opacity="0.501961" stroke-miterlimit="10" d="M 102.949219 121.148438 C 102.949219 123.753906 99.039062 123.753906 99.039062 121.148438 C 99.039062 118.539062 102.949219 118.539062 102.949219 121.148438 "/>
<path fill-rule="nonzero" fill="rgb(74.509804%, 74.509804%, 74.509804%)" fill-opacity="0.501961" stroke-width="0.708661" stroke-linecap="round" stroke-linejoin="round" stroke="rgb(74.509804%, 74.509804%, 74.509804%)" stroke-opacity="0.501961" stroke-miterlimit="10" d="M 116.03125 101.972656 C 116.03125 104.578125 112.121094 104.578125 112.121094 101.972656 C 112.121094 99.367188 116.03125 99.367188 116.03125 101.972656 "/>
<path fill-rule="nonzero" fill="rgb(74.509804%, 74.509804%, 74.509804%)" fill-opacity="0.501961" stroke-width="0.708661" stroke-linecap="round" stroke-linejoin="round" stroke="rgb(74.509804%, 74.509804%, 74.509804%)" stroke-opacity="0.501961" stroke-miterlimit="10" d="M 129.117188 86.632812 C 129.117188 89.238281 125.207031 89.238281 125.207031 86.632812 C 125.207031 84.027344 129.117188 84.027344 129.117188 86.632812 "/>
<path fill-rule="nonzero" fill="rgb(74.509804%, 74.509804%, 74.509804%)" fill-opacity="0.501961" stroke-width="0.708661" stroke-linecap="round" stroke-linejoin="round" stroke="rgb(74.509804%, 74.509804%, 74.509804%)" stroke-opacity="0.501961" stroke-miterlimit="10" d="M 142.199219 76.773438 C 142.199219 79.378906 138.292969 79.378906 138.292969 76.773438 C 138.292969 74.164062 142.199219 74.164062 142.199219 76.773438 "/>
<path fill-rule="nonzero" fill="rgb(74.509804%, 74.509804%, 74.509804%)" fill-opacity="0.501961" stroke-width="0.708661" stroke-linecap="round" stroke-linejoin="round" stroke="rgb(74.509804%, 74.509804%, 74.509804%)" stroke-opacity="0.501961" stroke-miterlimit="10" d="M 155.285156 68.007812 C 155.285156 70.613281 151.375 70.613281 151.375 68.007812 C 151.375 65.398438 155.285156 65.398438 155.285156 68.007812 "/>
<path fill-rule="nonzero" fill="rgb(74.509804%, 74.509804%, 74.509804%)" fill-opacity="0.501961" stroke-width="0.708661" stroke-linecap="round" stroke-linejoin="round" stroke="rgb(74.509804%, 74.509804%, 74.509804%)" stroke-opacity="0.501961" stroke-miterlimit="10" d="M 168.371094 59.789062 C 168.371094 62.394531 164.460938 62.394531 164.460938 59.789062 C 164.460938 57.183594 168.371094 57.183594 168.371094 59.789062 "/>
<path fill-rule="nonzero" fill="rgb(74.509804%, 74.509804%, 74.509804%)" fill-opacity="0.501961" stroke-width="0.708661" stroke-linecap="round" stroke-linejoin="round" stroke="rgb(74.509804%, 74.509804%, 74.509804%)" stroke-opacity="0.501961" stroke-miterlimit="10" d="M 181.453125 52.667969 C 181.453125 55.273438 177.542969 55.273438 177.542969 52.667969 C 177.542969 50.058594 181.453125 50.058594 181.453125 52.667969 "/>
<path fill-rule="nonzero" fill="rgb(74.509804%, 74.509804%, 74.509804%)" fill-opacity="0.501961" stroke-width="0.708661" stroke-linecap="round" stroke-linejoin="round" stroke="rgb(74.509804%, 74.509804%, 74.509804%)" stroke-opacity="0.501961" stroke-miterlimit="10" d="M 194.539062 46.09375 C 194.539062 48.699219 190.628906 48.699219 190.628906 46.09375 C 190.628906 43.484375 194.539062 43.484375 194.539062 46.09375 "/>
<path fill-rule="nonzero" fill="rgb(74.509804%, 74.509804%, 74.509804%)" fill-opacity="0.501961" stroke-width="0.708661" stroke-linecap="round" stroke-linejoin="round" stroke="rgb(74.509804%, 74.509804%, 74.509804%)" stroke-opacity="0.501961" stroke-miterlimit="10" d="M 207.621094 40.613281 C 207.621094 43.21875 203.714844 43.21875 203.714844 40.613281 C 203.714844 38.007812 207.621094 38.007812 207.621094 40.613281 "/>
<path fill-rule="nonzero" fill="rgb(74.509804%, 74.509804%, 74.509804%)" fill-opacity="0.501961" stroke-width="0.708661" stroke-linecap="round" stroke-linejoin="round" stroke="rgb(74.509804%, 74.509804%, 74.509804%)" stroke-opacity="0.501961" stroke-miterlimit="10" d="M 220.707031 35.683594 C 220.707031 38.289062 216.796875 38.289062 216.796875 35.683594 C 216.796875 33.078125 220.707031 33.078125 220.707031 35.683594 "/>
<path fill="none" stroke-width="2.133957" stroke-linecap="butt" stroke-linejoin="round" stroke="rgb(40%, 76.078431%, 64.705882%)" stroke-opacity="1" stroke-miterlimit="10" d="M 48.65625 243.511719 L 61.738281 199.488281 L 74.824219 119.367188 L 87.910156 80.894531 L 100.992188 68.988281 L 114.078125 65.726562 L 127.160156 64.863281 L 140.246094 64.636719 L 153.332031 64.578125 L 166.414062 64.5625 L 179.5 64.558594 L 192.582031 64.554688 L 218.753906 64.554688 "/>
<path fill="none" stroke-width="2.133957" stroke-linecap="butt" stroke-linejoin="round" stroke="rgb(98.823529%, 55.294118%, 38.431373%)" stroke-opacity="1" stroke-miterlimit="10" d="M 48.65625 207.972656 L 61.738281 191.617188 L 74.824219 171.207031 L 87.910156 148.0625 L 100.992188 124.515625 L 114.078125 103.050781 L 127.160156 85.359375 L 140.246094 71.953125 L 153.332031 62.417969 L 166.414062 55.949219 L 179.5 51.691406 L 192.582031 48.945312 L 205.667969 47.203125 L 218.753906 46.101562 "/>
<path fill="none" stroke-width="2.133957" stroke-linecap="butt" stroke-linejoin="round" stroke="rgb(55.294118%, 62.745098%, 79.607843%)" stroke-opacity="1" stroke-miterlimit="10" d="M 48.65625 214.746094 L 61.738281 193.519531 L 74.824219 169.21875 L 87.910156 144.714844 L 100.992188 122.195312 L 114.078125 102.847656 L 127.160156 87.011719 L 140.246094 74.5 L 153.332031 64.863281 L 166.414062 57.582031 L 179.5 52.148438 L 192.582031 48.132812 L 205.667969 45.183594 L 218.753906 43.035156 "/>
<g clip-path="url(#clip-17)">
<path fill="none" stroke-width="1.066978" stroke-linecap="round" stroke-linejoin="round" stroke="rgb(70.196078%, 70.196078%, 70.196078%)" stroke-opacity="1" stroke-miterlimit="10" d="M 40.152344 254.847656 L 227.257812 254.847656 L 227.257812 25.246094 L 40.152344 25.246094 Z M 40.152344 254.847656 "/>
</g>
<g clip-path="url(#clip-18)">
<path fill-rule="nonzero" fill="rgb(100%, 100%, 100%)" fill-opacity="1" d="M 232.738281 254.847656 L 419.84375 254.847656 L 419.84375 25.246094 L 232.738281 25.246094 Z M 232.738281 254.847656 "/>
</g>
<g clip-path="url(#clip-19)">
<path fill="none" stroke-width="0.266745" stroke-linecap="butt" stroke-linejoin="round" stroke="rgb(87.058824%, 87.058824%, 87.058824%)" stroke-opacity="1" stroke-miterlimit="10" d="M 232.738281 217.019531 L 419.84375 217.019531 "/>
</g>
<g clip-path="url(#clip-20)">
<path fill="none" stroke-width="0.266745" stroke-linecap="butt" stroke-linejoin="round" stroke="rgb(87.058824%, 87.058824%, 87.058824%)" stroke-opacity="1" stroke-miterlimit="10" d="M 232.738281 162.234375 L 419.84375 162.234375 "/>
</g>
<g clip-path="url(#clip-21)">
<path fill="none" stroke-width="0.266745" stroke-linecap="butt" stroke-linejoin="round" stroke="rgb(87.058824%, 87.058824%, 87.058824%)" stroke-opacity="1" stroke-miterlimit="10" d="M 232.738281 107.449219 L 419.84375 107.449219 "/>
</g>
<g clip-path="url(#clip-22)">
<path fill="none" stroke-width="0.266745" stroke-linecap="butt" stroke-linejoin="round" stroke="rgb(87.058824%, 87.058824%, 87.058824%)" stroke-opacity="1" stroke-miterlimit="10" d="M 232.738281 52.667969 L 419.84375 52.667969 "/>
</g>
<g clip-path="url(#clip-23)">
<path fill="none" stroke-width="0.266745" stroke-linecap="butt" stroke-linejoin="round" stroke="rgb(87.058824%, 87.058824%, 87.058824%)" stroke-opacity="1" stroke-miterlimit="10" d="M 241.242188 254.847656 L 241.242188 25.246094 "/>
</g>
<g clip-path="url(#clip-24)">
<path fill="none" stroke-width="0.266745" stroke-linecap="butt" stroke-linejoin="round" stroke="rgb(87.058824%, 87.058824%, 87.058824%)" stroke-opacity="1" stroke-miterlimit="10" d="M 293.578125 254.847656 L 293.578125 25.246094 "/>
</g>
<g clip-path="url(#clip-25)">
<path fill="none" stroke-width="0.266745" stroke-linecap="butt" stroke-linejoin="round" stroke="rgb(87.058824%, 87.058824%, 87.058824%)" stroke-opacity="1" stroke-miterlimit="10" d="M 345.917969 254.847656 L 345.917969 25.246094 "/>
</g>
<g clip-path="url(#clip-26)">
<path fill="none" stroke-width="0.266745" stroke-linecap="butt" stroke-linejoin="round" stroke="rgb(87.058824%, 87.058824%, 87.058824%)" stroke-opacity="1" stroke-miterlimit="10" d="M 398.253906 254.847656 L 398.253906 25.246094 "/>
</g>
<g clip-path="url(#clip-27)">
<path fill="none" stroke-width="0.533489" stroke-linecap="butt" stroke-linejoin="round" stroke="rgb(87.058824%, 87.058824%, 87.058824%)" stroke-opacity="1" stroke-miterlimit="10" d="M 232.738281 244.414062 L 419.84375 244.414062 "/>
</g>
<g clip-path="url(#clip-28)">
<path fill="none" stroke-width="0.533489" stroke-linecap="butt" stroke-linejoin="round" stroke="rgb(87.058824%, 87.058824%, 87.058824%)" stroke-opacity="1" stroke-miterlimit="10" d="M 232.738281 189.628906 L 419.84375 189.628906 "/>
</g>
<g clip-path="url(#clip-29)">
<path fill="none" stroke-width="0.533489" stroke-linecap="butt" stroke-linejoin="round" stroke="rgb(87.058824%, 87.058824%, 87.058824%)" stroke-opacity="1" stroke-miterlimit="10" d="M 232.738281 134.84375 L 419.84375 134.84375 "/>
</g>
<g clip-path="url(#clip-30)">
<path fill="none" stroke-width="0.533489" stroke-linecap="butt" stroke-linejoin="round" stroke="rgb(87.058824%, 87.058824%, 87.058824%)" stroke-opacity="1" stroke-miterlimit="10" d="M 232.738281 80.058594 L 419.84375 80.058594 "/>
</g>
<g clip-path="url(#clip-31)">
<path fill="none" stroke-width="0.533489" stroke-linecap="butt" stroke-linejoin="round" stroke="rgb(87.058824%, 87.058824%, 87.058824%)" stroke-opacity="1" stroke-miterlimit="10" d="M 232.738281 25.273438 L 419.84375 25.273438 "/>
</g>
<g clip-path="url(#clip-32)">
<path fill="none" stroke-width="0.533489" stroke-linecap="butt" stroke-linejoin="round" stroke="rgb(87.058824%, 87.058824%, 87.058824%)" stroke-opacity="1" stroke-miterlimit="10" d="M 267.410156 254.847656 L 267.410156 25.246094 "/>
</g>
<g clip-path="url(#clip-33)">
<path fill="none" stroke-width="0.533489" stroke-linecap="butt" stroke-linejoin="round" stroke="rgb(87.058824%, 87.058824%, 87.058824%)" stroke-opacity="1" stroke-miterlimit="10" d="M 319.746094 254.847656 L 319.746094 25.246094 "/>
</g>
<g clip-path="url(#clip-34)">
<path fill="none" stroke-width="0.533489" stroke-linecap="butt" stroke-linejoin="round" stroke="rgb(87.058824%, 87.058824%, 87.058824%)" stroke-opacity="1" stroke-miterlimit="10" d="M 372.085938 254.847656 L 372.085938 25.246094 "/>
</g>
<path fill-rule="nonzero" fill="rgb(74.509804%, 74.509804%, 74.509804%)" fill-opacity="0.501961" stroke-width="0.708661" stroke-linecap="round" stroke-linejoin="round" stroke="rgb(74.509804%, 74.509804%, 74.509804%)" stroke-opacity="0.501961" stroke-miterlimit="10" d="M 243.195312 228.523438 C 243.195312 231.132812 239.285156 231.132812 239.285156 228.523438 C 239.285156 225.917969 243.195312 225.917969 243.195312 228.523438 "/>
<path fill-rule="nonzero" fill="rgb(74.509804%, 74.509804%, 74.509804%)" fill-opacity="0.501961" stroke-width="0.708661" stroke-linecap="round" stroke-linejoin="round" stroke="rgb(74.509804%, 74.509804%, 74.509804%)" stroke-opacity="0.501961" stroke-miterlimit="10" d="M 256.28125 214.828125 C 256.28125 217.433594 252.371094 217.433594 252.371094 214.828125 C 252.371094 212.222656 256.28125 212.222656 256.28125 214.828125 "/>
<path fill-rule="nonzero" fill="rgb(74.509804%, 74.509804%, 74.509804%)" fill-opacity="0.501961" stroke-width="0.708661" stroke-linecap="round" stroke-linejoin="round" stroke="rgb(74.509804%, 74.509804%, 74.509804%)" stroke-opacity="0.501961" stroke-miterlimit="10" d="M 269.363281 201.679688 C 269.363281 204.289062 265.457031 204.289062 265.457031 201.679688 C 265.457031 199.074219 269.363281 199.074219 269.363281 201.679688 "/>
<path fill-rule="nonzero" fill="rgb(74.509804%, 74.509804%, 74.509804%)" fill-opacity="0.501961" stroke-width="0.708661" stroke-linecap="round" stroke-linejoin="round" stroke="rgb(74.509804%, 74.509804%, 74.509804%)" stroke-opacity="0.501961" stroke-miterlimit="10" d="M 282.449219 190.722656 C 282.449219 193.332031 278.539062 193.332031 278.539062 190.722656 C 278.539062 188.117188 282.449219 188.117188 282.449219 190.722656 "/>
<path fill-rule="nonzero" fill="rgb(74.509804%, 74.509804%, 74.509804%)" fill-opacity="0.501961" stroke-width="0.708661" stroke-linecap="round" stroke-linejoin="round" stroke="rgb(74.509804%, 74.509804%, 74.509804%)" stroke-opacity="0.501961" stroke-miterlimit="10" d="M 295.535156 180.316406 C 295.535156 182.921875 291.625 182.921875 291.625 180.316406 C 291.625 177.707031 295.535156 177.707031 295.535156 180.316406 "/>
<path fill-rule="nonzero" fill="rgb(74.509804%, 74.509804%, 74.509804%)" fill-opacity="0.501961" stroke-width="0.708661" stroke-linecap="round" stroke-linejoin="round" stroke="rgb(74.509804%, 74.509804%, 74.509804%)" stroke-opacity="0.501961" stroke-miterlimit="10" d="M 308.617188 169.359375 C 308.617188 171.964844 304.707031 171.964844 304.707031 169.359375 C 304.707031 166.75 308.617188 166.75 308.617188 169.359375 "/>
<path fill-rule="nonzero" fill="rgb(74.509804%, 74.509804%, 74.509804%)" fill-opacity="0.501961" stroke-width="0.708661" stroke-linecap="round" stroke-linejoin="round" stroke="rgb(74.509804%, 74.509804%, 74.509804%)" stroke-opacity="0.501961" stroke-miterlimit="10" d="M 321.703125 160.59375 C 321.703125 163.199219 317.792969 163.199219 317.792969 160.59375 C 317.792969 157.984375 321.703125 157.984375 321.703125 160.59375 "/>
<path fill-rule="nonzero" fill="rgb(74.509804%, 74.509804%, 74.509804%)" fill-opacity="0.501961" stroke-width="0.708661" stroke-linecap="round" stroke-linejoin="round" stroke="rgb(74.509804%, 74.509804%, 74.509804%)" stroke-opacity="0.501961" stroke-miterlimit="10" d="M 243.195312 230.167969 C 243.195312 232.773438 239.285156 232.773438 239.285156 230.167969 C 239.285156 227.5625 243.195312 227.5625 243.195312 230.167969 "/>
<path fill-rule="nonzero" fill="rgb(74.509804%, 74.509804%, 74.509804%)" fill-opacity="0.501961" stroke-width="0.708661" stroke-linecap="round" stroke-linejoin="round" stroke="rgb(74.509804%, 74.509804%, 74.509804%)" stroke-opacity="0.501961" stroke-miterlimit="10" d="M 256.28125 215.925781 C 256.28125 218.53125 252.371094 218.53125 252.371094 215.925781 C 252.371094 213.320312 256.28125 213.320312 256.28125 215.925781 "/>
<path fill-rule="nonzero" fill="rgb(74.509804%, 74.509804%, 74.509804%)" fill-opacity="0.501961" stroke-width="0.708661" stroke-linecap="round" stroke-linejoin="round" stroke="rgb(74.509804%, 74.509804%, 74.509804%)" stroke-opacity="0.501961" stroke-miterlimit="10" d="M 269.363281 204.421875 C 269.363281 207.027344 265.457031 207.027344 265.457031 204.421875 C 265.457031 201.8125 269.363281 201.8125 269.363281 204.421875 "/>
<path fill-rule="nonzero" fill="rgb(74.509804%, 74.509804%, 74.509804%)" fill-opacity="0.501961" stroke-width="0.708661" stroke-linecap="round" stroke-linejoin="round" stroke="rgb(74.509804%, 74.509804%, 74.509804%)" stroke-opacity="0.501961" stroke-miterlimit="10" d="M 282.449219 193.464844 C 282.449219 196.070312 278.539062 196.070312 278.539062 193.464844 C 278.539062 190.855469 282.449219 190.855469 282.449219 193.464844 "/>
<path fill-rule="nonzero" fill="rgb(74.509804%, 74.509804%, 74.509804%)" fill-opacity="0.501961" stroke-width="0.708661" stroke-linecap="round" stroke-linejoin="round" stroke="rgb(74.509804%, 74.509804%, 74.509804%)" stroke-opacity="0.501961" stroke-miterlimit="10" d="M 295.535156 185.792969 C 295.535156 188.398438 291.625 188.398438 291.625 185.792969 C 291.625 183.1875 295.535156 183.1875 295.535156 185.792969 "/>
<path fill-rule="nonzero" fill="rgb(74.509804%, 74.509804%, 74.509804%)" fill-opacity="0.501961" stroke-width="0.708661" stroke-linecap="round" stroke-linejoin="round" stroke="rgb(74.509804%, 74.509804%, 74.509804%)" stroke-opacity="0.501961" stroke-miterlimit="10" d="M 308.617188 179.765625 C 308.617188 182.375 304.707031 182.375 304.707031 179.765625 C 304.707031 177.160156 308.617188 177.160156 308.617188 179.765625 "/>
<path fill-rule="nonzero" fill="rgb(74.509804%, 74.509804%, 74.509804%)" fill-opacity="0.501961" stroke-width="0.708661" stroke-linecap="round" stroke-linejoin="round" stroke="rgb(74.509804%, 74.509804%, 74.509804%)" stroke-opacity="0.501961" stroke-miterlimit="10" d="M 321.703125 174.289062 C 321.703125 176.894531 317.792969 176.894531 317.792969 174.289062 C 317.792969 171.683594 321.703125 171.683594 321.703125 174.289062 "/>
<path fill-rule="nonzero" fill="rgb(74.509804%, 74.509804%, 74.509804%)" fill-opacity="0.501961" stroke-width="0.708661" stroke-linecap="round" stroke-linejoin="round" stroke="rgb(74.509804%, 74.509804%, 74.509804%)" stroke-opacity="0.501961" stroke-miterlimit="10" d="M 334.785156 169.359375 C 334.785156 171.964844 330.878906 171.964844 330.878906 169.359375 C 330.878906 166.75 334.785156 166.75 334.785156 169.359375 "/>
<path fill-rule="nonzero" fill="rgb(74.509804%, 74.509804%, 74.509804%)" fill-opacity="0.501961" stroke-width="0.708661" stroke-linecap="round" stroke-linejoin="round" stroke="rgb(74.509804%, 74.509804%, 74.509804%)" stroke-opacity="0.501961" stroke-miterlimit="10" d="M 347.871094 164.976562 C 347.871094 167.582031 343.960938 167.582031 343.960938 164.976562 C 343.960938 162.367188 347.871094 162.367188 347.871094 164.976562 "/>
<path fill-rule="nonzero" fill="rgb(74.509804%, 74.509804%, 74.509804%)" fill-opacity="0.501961" stroke-width="0.708661" stroke-linecap="round" stroke-linejoin="round" stroke="rgb(74.509804%, 74.509804%, 74.509804%)" stroke-opacity="0.501961" stroke-miterlimit="10" d="M 360.957031 159.496094 C 360.957031 162.101562 357.046875 162.101562 357.046875 159.496094 C 357.046875 156.890625 360.957031 156.890625 360.957031 159.496094 "/>
<path fill-rule="nonzero" fill="rgb(74.509804%, 74.509804%, 74.509804%)" fill-opacity="0.501961" stroke-width="0.708661" stroke-linecap="round" stroke-linejoin="round" stroke="rgb(74.509804%, 74.509804%, 74.509804%)" stroke-opacity="0.501961" stroke-miterlimit="10" d="M 374.039062 151.828125 C 374.039062 154.433594 370.128906 154.433594 370.128906 151.828125 C 370.128906 149.21875 374.039062 149.21875 374.039062 151.828125 "/>
<path fill-rule="nonzero" fill="rgb(74.509804%, 74.509804%, 74.509804%)" fill-opacity="0.501961" stroke-width="0.708661" stroke-linecap="round" stroke-linejoin="round" stroke="rgb(74.509804%, 74.509804%, 74.509804%)" stroke-opacity="0.501961" stroke-miterlimit="10" d="M 243.195312 230.714844 C 243.195312 233.324219 239.285156 233.324219 239.285156 230.714844 C 239.285156 228.109375 243.195312 228.109375 243.195312 230.714844 "/>
<path fill-rule="nonzero" fill="rgb(74.509804%, 74.509804%, 74.509804%)" fill-opacity="0.501961" stroke-width="0.708661" stroke-linecap="round" stroke-linejoin="round" stroke="rgb(74.509804%, 74.509804%, 74.509804%)" stroke-opacity="0.501961" stroke-miterlimit="10" d="M 256.28125 214.828125 C 256.28125 217.433594 252.371094 217.433594 252.371094 214.828125 C 252.371094 212.222656 256.28125 212.222656 256.28125 214.828125 "/>
<path fill-rule="nonzero" fill="rgb(74.509804%, 74.509804%, 74.509804%)" fill-opacity="0.501961" stroke-width="0.708661" stroke-linecap="round" stroke-linejoin="round" stroke="rgb(74.509804%, 74.509804%, 74.509804%)" stroke-opacity="0.501961" stroke-miterlimit="10" d="M 269.363281 198.941406 C 269.363281 201.546875 265.457031 201.546875 265.457031 198.941406 C 265.457031 196.335938 269.363281 196.335938 269.363281 198.941406 "/>
<path fill-rule="nonzero" fill="rgb(74.509804%, 74.509804%, 74.509804%)" fill-opacity="0.501961" stroke-width="0.708661" stroke-linecap="round" stroke-linejoin="round" stroke="rgb(74.509804%, 74.509804%, 74.509804%)" stroke-opacity="0.501961" stroke-miterlimit="10" d="M 282.449219 188.53125 C 282.449219 191.140625 278.539062 191.140625 278.539062 188.53125 C 278.539062 185.925781 282.449219 185.925781 282.449219 188.53125 "/>
<path fill-rule="nonzero" fill="rgb(74.509804%, 74.509804%, 74.509804%)" fill-opacity="0.501961" stroke-width="0.708661" stroke-linecap="round" stroke-linejoin="round" stroke="rgb(74.509804%, 74.509804%, 74.509804%)" stroke-opacity="0.501961" stroke-miterlimit="10" d="M 295.535156 181.410156 C 295.535156 184.015625 291.625 184.015625 291.625 181.410156 C 291.625 178.804688 295.535156 178.804688 295.535156 181.410156 "/>
<path fill-rule="nonzero" fill="rgb(74.509804%, 74.509804%, 74.509804%)" fill-opacity="0.501961" stroke-width="0.708661" stroke-linecap="round" stroke-linejoin="round" stroke="rgb(74.509804%, 74.509804%, 74.509804%)" stroke-opacity="0.501961" stroke-miterlimit="10" d="M 308.617188 175.382812 C 308.617188 177.992188 304.707031 177.992188 304.707031 175.382812 C 304.707031 172.777344 308.617188 172.777344 308.617188 175.382812 "/>
<path fill-rule="nonzero" fill="rgb(74.509804%, 74.509804%, 74.509804%)" fill-opacity="0.501961" stroke-width="0.708661" stroke-linecap="round" stroke-linejoin="round" stroke="rgb(74.509804%, 74.509804%, 74.509804%)" stroke-opacity="0.501961" stroke-miterlimit="10" d="M 321.703125 169.90625 C 321.703125 172.511719 317.792969 172.511719 317.792969 169.90625 C 317.792969 167.300781 321.703125 167.300781 321.703125 169.90625 "/>
<path fill-rule="nonzero" fill="rgb(74.509804%, 74.509804%, 74.509804%)" fill-opacity="0.501961" stroke-width="0.708661" stroke-linecap="round" stroke-linejoin="round" stroke="rgb(74.509804%, 74.509804%, 74.509804%)" stroke-opacity="0.501961" stroke-miterlimit="10" d="M 334.785156 164.425781 C 334.785156 167.035156 330.878906 167.035156 330.878906 164.425781 C 330.878906 161.820312 334.785156 161.820312 334.785156 164.425781 "/>
<path fill-rule="nonzero" fill="rgb(74.509804%, 74.509804%, 74.509804%)" fill-opacity="0.501961" stroke-width="0.708661" stroke-linecap="round" stroke-linejoin="round" stroke="rgb(74.509804%, 74.509804%, 74.509804%)" stroke-opacity="0.501961" stroke-miterlimit="10" d="M 347.871094 158.949219 C 347.871094 161.554688 343.960938 161.554688 343.960938 158.949219 C 343.960938 156.34375 347.871094 156.34375 347.871094 158.949219 "/>
<path fill-rule="nonzero" fill="rgb(74.509804%, 74.509804%, 74.509804%)" fill-opacity="0.501961" stroke-width="0.708661" stroke-linecap="round" stroke-linejoin="round" stroke="rgb(74.509804%, 74.509804%, 74.509804%)" stroke-opacity="0.501961" stroke-miterlimit="10" d="M 360.957031 151.277344 C 360.957031 153.886719 357.046875 153.886719 357.046875 151.277344 C 357.046875 148.671875 360.957031 148.671875 360.957031 151.277344 "/>
<path fill-rule="nonzero" fill="rgb(74.509804%, 74.509804%, 74.509804%)" fill-opacity="0.501961" stroke-width="0.708661" stroke-linecap="round" stroke-linejoin="round" stroke="rgb(74.509804%, 74.509804%, 74.509804%)" stroke-opacity="0.501961" stroke-miterlimit="10" d="M 374.039062 144.15625 C 374.039062 146.761719 370.128906 146.761719 370.128906 144.15625 C 370.128906 141.550781 374.039062 141.550781 374.039062 144.15625 "/>
<path fill-rule="nonzero" fill="rgb(74.509804%, 74.509804%, 74.509804%)" fill-opacity="0.501961" stroke-width="0.708661" stroke-linecap="round" stroke-linejoin="round" stroke="rgb(74.509804%, 74.509804%, 74.509804%)" stroke-opacity="0.501961" stroke-miterlimit="10" d="M 243.195312 226.332031 C 243.195312 228.941406 239.285156 228.941406 239.285156 226.332031 C 239.285156 223.726562 243.195312 223.726562 243.195312 226.332031 "/>
<path fill-rule="nonzero" fill="rgb(74.509804%, 74.509804%, 74.509804%)" fill-opacity="0.501961" stroke-width="0.708661" stroke-linecap="round" stroke-linejoin="round" stroke="rgb(74.509804%, 74.509804%, 74.509804%)" stroke-opacity="0.501961" stroke-miterlimit="10" d="M 256.28125 210.445312 C 256.28125 213.050781 252.371094 213.050781 252.371094 210.445312 C 252.371094 207.839844 256.28125 207.839844 256.28125 210.445312 "/>
<path fill-rule="nonzero" fill="rgb(74.509804%, 74.509804%, 74.509804%)" fill-opacity="0.501961" stroke-width="0.708661" stroke-linecap="round" stroke-linejoin="round" stroke="rgb(74.509804%, 74.509804%, 74.509804%)" stroke-opacity="0.501961" stroke-miterlimit="10" d="M 269.363281 195.105469 C 269.363281 197.714844 265.457031 197.714844 265.457031 195.105469 C 265.457031 192.5 269.363281 192.5 269.363281 195.105469 "/>
<path fill-rule="nonzero" fill="rgb(74.509804%, 74.509804%, 74.509804%)" fill-opacity="0.501961" stroke-width="0.708661" stroke-linecap="round" stroke-linejoin="round" stroke="rgb(74.509804%, 74.509804%, 74.509804%)" stroke-opacity="0.501961" stroke-miterlimit="10" d="M 282.449219 184.699219 C 282.449219 187.304688 278.539062 187.304688 278.539062 184.699219 C 278.539062 182.089844 282.449219 182.089844 282.449219 184.699219 "/>
<path fill-rule="nonzero" fill="rgb(74.509804%, 74.509804%, 74.509804%)" fill-opacity="0.501961" stroke-width="0.708661" stroke-linecap="round" stroke-linejoin="round" stroke="rgb(74.509804%, 74.509804%, 74.509804%)" stroke-opacity="0.501961" stroke-miterlimit="10" d="M 295.535156 177.027344 C 295.535156 179.632812 291.625 179.632812 291.625 177.027344 C 291.625 174.421875 295.535156 174.421875 295.535156 177.027344 "/>
<path fill-rule="nonzero" fill="rgb(74.509804%, 74.509804%, 74.509804%)" fill-opacity="0.501961" stroke-width="0.708661" stroke-linecap="round" stroke-linejoin="round" stroke="rgb(74.509804%, 74.509804%, 74.509804%)" stroke-opacity="0.501961" stroke-miterlimit="10" d="M 308.617188 169.90625 C 308.617188 172.511719 304.707031 172.511719 304.707031 169.90625 C 304.707031 167.300781 308.617188 167.300781 308.617188 169.90625 "/>
<path fill-rule="nonzero" fill="rgb(74.509804%, 74.509804%, 74.509804%)" fill-opacity="0.501961" stroke-width="0.708661" stroke-linecap="round" stroke-linejoin="round" stroke="rgb(74.509804%, 74.509804%, 74.509804%)" stroke-opacity="0.501961" stroke-miterlimit="10" d="M 321.703125 162.234375 C 321.703125 164.84375 317.792969 164.84375 317.792969 162.234375 C 317.792969 159.628906 321.703125 159.628906 321.703125 162.234375 "/>
<path fill-rule="nonzero" fill="rgb(74.509804%, 74.509804%, 74.509804%)" fill-opacity="0.501961" stroke-width="0.708661" stroke-linecap="round" stroke-linejoin="round" stroke="rgb(74.509804%, 74.509804%, 74.509804%)" stroke-opacity="0.501961" stroke-miterlimit="10" d="M 334.785156 154.019531 C 334.785156 156.625 330.878906 156.625 330.878906 154.019531 C 330.878906 151.410156 334.785156 151.410156 334.785156 154.019531 "/>
<path fill-rule="nonzero" fill="rgb(74.509804%, 74.509804%, 74.509804%)" fill-opacity="0.501961" stroke-width="0.708661" stroke-linecap="round" stroke-linejoin="round" stroke="rgb(74.509804%, 74.509804%, 74.509804%)" stroke-opacity="0.501961" stroke-miterlimit="10" d="M 347.871094 144.15625 C 347.871094 146.761719 343.960938 146.761719 343.960938 144.15625 C 343.960938 141.550781 347.871094 141.550781 347.871094 144.15625 "/>
<path fill-rule="nonzero" fill="rgb(74.509804%, 74.509804%, 74.509804%)" fill-opacity="0.501961" stroke-width="0.708661" stroke-linecap="round" stroke-linejoin="round" stroke="rgb(74.509804%, 74.509804%, 74.509804%)" stroke-opacity="0.501961" stroke-miterlimit="10" d="M 360.957031 135.390625 C 360.957031 137.996094 357.046875 137.996094 357.046875 135.390625 C 357.046875 132.785156 360.957031 132.785156 360.957031 135.390625 "/>
<path fill-rule="nonzero" fill="rgb(74.509804%, 74.509804%, 74.509804%)" fill-opacity="0.501961" stroke-width="0.708661" stroke-linecap="round" stroke-linejoin="round" stroke="rgb(74.509804%, 74.509804%, 74.509804%)" stroke-opacity="0.501961" stroke-miterlimit="10" d="M 374.039062 126.078125 C 374.039062 128.683594 370.128906 128.683594 370.128906 126.078125 C 370.128906 123.472656 374.039062 123.472656 374.039062 126.078125 "/>
<path fill="none" stroke-width="2.133957" stroke-linecap="butt" stroke-linejoin="round" stroke="rgb(40%, 76.078431%, 64.705882%)" stroke-opacity="1" stroke-miterlimit="10" d="M 241.242188 244.414062 L 372.085938 244.414062 "/>
<path fill="none" stroke-width="2.133957" stroke-linecap="butt" stroke-linejoin="round" stroke="rgb(98.823529%, 55.294118%, 38.431373%)" stroke-opacity="1" stroke-miterlimit="10" d="M 241.242188 222.121094 L 254.324219 213.828125 L 267.410156 204 L 280.496094 193.261719 L 293.578125 182.519531 L 306.664062 172.671875 L 319.746094 164.347656 L 332.832031 157.78125 L 345.917969 152.875 L 359 149.359375 L 372.085938 146.914062 "/>
<path fill="none" stroke-width="2.133957" stroke-linecap="butt" stroke-linejoin="round" stroke="rgb(55.294118%, 62.745098%, 79.607843%)" stroke-opacity="1" stroke-miterlimit="10" d="M 241.242188 224.5625 L 254.324219 214.351562 L 267.410156 203.246094 L 280.496094 192.179688 L 293.578125 181.871094 L 306.664062 172.738281 L 319.746094 164.957031 L 332.832031 158.515625 L 345.917969 153.300781 L 359 149.148438 L 372.085938 145.882812 "/>
<g clip-path="url(#clip-35)">
<path fill="none" stroke-width="1.066978" stroke-linecap="round" stroke-linejoin="round" stroke="rgb(70.196078%, 70.196078%, 70.196078%)" stroke-opacity="1" stroke-miterlimit="10" d="M 232.738281 254.847656 L 419.84375 254.847656 L 419.84375 25.246094 L 232.738281 25.246094 Z M 232.738281 254.847656 "/>
</g>
<g clip-path="url(#clip-36)">
<path fill-rule="nonzero" fill="rgb(70.196078%, 70.196078%, 70.196078%)" fill-opacity="1" d="M 40.152344 25.246094 L 227.257812 25.246094 L 227.257812 5.480469 L 40.152344 5.480469 Z M 40.152344 25.246094 "/>
</g>
<g fill="rgb(100%, 100%, 100%)" fill-opacity="1">
<use xlink:href="#glyph-0-0" x="106.703125" y="19.016602"/>
<use xlink:href="#glyph-0-1" x="112.703125" y="19.016602"/>
<use xlink:href="#glyph-0-2" x="118.703125" y="19.016602"/>
<use xlink:href="#glyph-0-3" x="124.703125" y="19.016602"/>
<use xlink:href="#glyph-0-4" x="130.703125" y="19.016602"/>
<use xlink:href="#glyph-0-5" x="134.703125" y="19.016602"/>
<use xlink:href="#glyph-0-1" x="137.703125" y="19.016602"/>
<use xlink:href="#glyph-0-6" x="143.703125" y="19.016602"/>
<use xlink:href="#glyph-0-7" x="150.703125" y="19.016602"/>
<use xlink:href="#glyph-0-8" x="153.703125" y="19.016602"/>
</g>
<g clip-path="url(#clip-37)">
<path fill-rule="nonzero" fill="rgb(70.196078%, 70.196078%, 70.196078%)" fill-opacity="1" d="M 232.738281 25.246094 L 419.84375 25.246094 L 419.84375 5.480469 L 232.738281 5.480469 Z M 232.738281 25.246094 "/>
</g>
<g fill="rgb(100%, 100%, 100%)" fill-opacity="1">
<use xlink:href="#glyph-0-0" x="299.289062" y="19.016602"/>
<use xlink:href="#glyph-0-1" x="305.289062" y="19.016602"/>
<use xlink:href="#glyph-0-2" x="311.289062" y="19.016602"/>
<use xlink:href="#glyph-0-3" x="317.289062" y="19.016602"/>
<use xlink:href="#glyph-0-4" x="323.289062" y="19.016602"/>
<use xlink:href="#glyph-0-5" x="327.289062" y="19.016602"/>
<use xlink:href="#glyph-0-1" x="330.289062" y="19.016602"/>
<use xlink:href="#glyph-0-6" x="336.289062" y="19.016602"/>
<use xlink:href="#glyph-0-7" x="343.289062" y="19.016602"/>
<use xlink:href="#glyph-0-9" x="346.289062" y="19.016602"/>
</g>
<path fill="none" stroke-width="0.533489" stroke-linecap="butt" stroke-linejoin="round" stroke="rgb(70.196078%, 70.196078%, 70.196078%)" stroke-opacity="1" stroke-miterlimit="10" d="M 74.824219 257.589844 L 74.824219 254.847656 "/>
<path fill="none" stroke-width="0.533489" stroke-linecap="butt" stroke-linejoin="round" stroke="rgb(70.196078%, 70.196078%, 70.196078%)" stroke-opacity="1" stroke-miterlimit="10" d="M 127.160156 257.589844 L 127.160156 254.847656 "/>
<path fill="none" stroke-width="0.533489" stroke-linecap="butt" stroke-linejoin="round" stroke="rgb(70.196078%, 70.196078%, 70.196078%)" stroke-opacity="1" stroke-miterlimit="10" d="M 179.5 257.589844 L 179.5 254.847656 "/>
<g fill="rgb(30.196078%, 30.196078%, 30.196078%)" fill-opacity="1">
<use xlink:href="#glyph-0-10" x="67.824219" y="267.43457"/>
<use xlink:href="#glyph-0-11" x="74.824219" y="267.43457"/>
</g>
<g fill="rgb(30.196078%, 30.196078%, 30.196078%)" fill-opacity="1">
<use xlink:href="#glyph-0-12" x="120.160156" y="267.43457"/>
<use xlink:href="#glyph-0-11" x="127.160156" y="267.43457"/>
</g>
<g fill="rgb(30.196078%, 30.196078%, 30.196078%)" fill-opacity="1">
<use xlink:href="#glyph-0-13" x="169" y="267.43457"/>
<use xlink:href="#glyph-0-8" x="176" y="267.43457"/>
<use xlink:href="#glyph-0-11" x="183" y="267.43457"/>
</g>
<path fill="none" stroke-width="0.533489" stroke-linecap="butt" stroke-linejoin="round" stroke="rgb(70.196078%, 70.196078%, 70.196078%)" stroke-opacity="1" stroke-miterlimit="10" d="M 267.410156 257.589844 L 267.410156 254.847656 "/>
<path fill="none" stroke-width="0.533489" stroke-linecap="butt" stroke-linejoin="round" stroke="rgb(70.196078%, 70.196078%, 70.196078%)" stroke-opacity="1" stroke-miterlimit="10" d="M 319.746094 257.589844 L 319.746094 254.847656 "/>
<path fill="none" stroke-width="0.533489" stroke-linecap="butt" stroke-linejoin="round" stroke="rgb(70.196078%, 70.196078%, 70.196078%)" stroke-opacity="1" stroke-miterlimit="10" d="M 372.085938 257.589844 L 372.085938 254.847656 "/>
<g fill="rgb(30.196078%, 30.196078%, 30.196078%)" fill-opacity="1">
<use xlink:href="#glyph-0-10" x="260.410156" y="267.43457"/>
<use xlink:href="#glyph-0-11" x="267.410156" y="267.43457"/>
</g>
<g fill="rgb(30.196078%, 30.196078%, 30.196078%)" fill-opacity="1">
<use xlink:href="#glyph-0-12" x="312.746094" y="267.43457"/>
<use xlink:href="#glyph-0-11" x="319.746094" y="267.43457"/>
</g>
<g fill="rgb(30.196078%, 30.196078%, 30.196078%)" fill-opacity="1">
<use xlink:href="#glyph-0-13" x="361.585938" y="267.43457"/>
<use xlink:href="#glyph-0-8" x="368.585938" y="267.43457"/>
<use xlink:href="#glyph-0-11" x="375.585938" y="267.43457"/>
</g>
<g fill="rgb(30.196078%, 30.196078%, 30.196078%)" fill-opacity="1">
<use xlink:href="#glyph-0-11" x="28.21875" y="248.067383"/>
</g>
<g fill="rgb(30.196078%, 30.196078%, 30.196078%)" fill-opacity="1">
<use xlink:href="#glyph-0-13" x="21.21875" y="193.282227"/>
<use xlink:href="#glyph-0-11" x="28.21875" y="193.282227"/>
</g>
<g fill="rgb(30.196078%, 30.196078%, 30.196078%)" fill-opacity="1">
<use xlink:href="#glyph-0-8" x="21.21875" y="138.49707"/>
<use xlink:href="#glyph-0-11" x="28.21875" y="138.49707"/>
</g>
<g fill="rgb(30.196078%, 30.196078%, 30.196078%)" fill-opacity="1">
<use xlink:href="#glyph-0-14" x="21.21875" y="83.711914"/>
<use xlink:href="#glyph-0-11" x="28.21875" y="83.711914"/>
</g>
<g fill="rgb(30.196078%, 30.196078%, 30.196078%)" fill-opacity="1">
<use xlink:href="#glyph-0-10" x="21.21875" y="28.926758"/>
<use xlink:href="#glyph-0-11" x="28.21875" y="28.926758"/>
</g>
<path fill="none" stroke-width="0.533489" stroke-linecap="butt" stroke-linejoin="round" stroke="rgb(70.196078%, 70.196078%, 70.196078%)" stroke-opacity="1" stroke-miterlimit="10" d="M 37.410156 244.414062 L 40.152344 244.414062 "/>
<path fill="none" stroke-width="0.533489" stroke-linecap="butt" stroke-linejoin="round" stroke="rgb(70.196078%, 70.196078%, 70.196078%)" stroke-opacity="1" stroke-miterlimit="10" d="M 37.410156 189.628906 L 40.152344 189.628906 "/>
<path fill="none" stroke-width="0.533489" stroke-linecap="butt" stroke-linejoin="round" stroke="rgb(70.196078%, 70.196078%, 70.196078%)" stroke-opacity="1" stroke-miterlimit="10" d="M 37.410156 134.84375 L 40.152344 134.84375 "/>
<path fill="none" stroke-width="0.533489" stroke-linecap="butt" stroke-linejoin="round" stroke="rgb(70.196078%, 70.196078%, 70.196078%)" stroke-opacity="1" stroke-miterlimit="10" d="M 37.410156 80.058594 L 40.152344 80.058594 "/>
<path fill="none" stroke-width="0.533489" stroke-linecap="butt" stroke-linejoin="round" stroke="rgb(70.196078%, 70.196078%, 70.196078%)" stroke-opacity="1" stroke-miterlimit="10" d="M 37.410156 25.273438 L 40.152344 25.273438 "/>
<g fill="rgb(0%, 0%, 0%)" fill-opacity="1">
<use xlink:href="#glyph-1-0" x="190.996094" y="282.586914"/>
<use xlink:href="#glyph-1-1" x="196.996094" y="282.586914"/>
<use xlink:href="#glyph-1-2" x="201.996094" y="282.586914"/>
<use xlink:href="#glyph-1-2" x="209.996094" y="282.586914"/>
<use xlink:href="#glyph-1-3" x="217.996094" y="282.586914"/>
<use xlink:href="#glyph-1-4" x="221.996094" y="282.586914"/>
<use xlink:href="#glyph-1-5" x="230.996094" y="282.586914"/>
<use xlink:href="#glyph-1-2" x="238.996094" y="282.586914"/>
<use xlink:href="#glyph-1-3" x="246.996094" y="282.586914"/>
<use xlink:href="#glyph-1-6" x="250.996094" y="282.586914"/>
<use xlink:href="#glyph-1-7" x="255.996094" y="282.586914"/>
<use xlink:href="#glyph-1-8" x="263.996094" y="282.586914"/>
</g>
<g fill="rgb(0%, 0%, 0%)" fill-opacity="1">
<use xlink:href="#glyph-2-0" x="14.547852" y="190.546875"/>
<use xlink:href="#glyph-2-1" x="14.547852" y="184.546875"/>
<use xlink:href="#glyph-2-2" x="14.547852" y="179.546875"/>
<use xlink:href="#glyph-2-2" x="14.547852" y="171.546875"/>
<use xlink:href="#glyph-2-3" x="14.547852" y="163.546875"/>
<use xlink:href="#glyph-2-4" x="14.547852" y="159.546875"/>
<use xlink:href="#glyph-2-2" x="14.547852" y="149.546875"/>
<use xlink:href="#glyph-2-5" x="14.547852" y="141.546875"/>
<use xlink:href="#glyph-2-6" x="14.547852" y="137.546875"/>
<use xlink:href="#glyph-2-7" x="14.547852" y="129.546875"/>
<use xlink:href="#glyph-2-8" x="14.547852" y="121.546875"/>
<use xlink:href="#glyph-2-3" x="14.547852" y="116.546875"/>
<use xlink:href="#glyph-2-9" x="14.547852" y="112.546875"/>
<use xlink:href="#glyph-2-10" x="14.547852" y="107.546875"/>
<use xlink:href="#glyph-2-11" x="14.547852" y="94.546875"/>
</g>
<path fill-rule="nonzero" fill="rgb(100%, 100%, 100%)" fill-opacity="1" d="M 430.800781 180.6875 L 514.519531 180.6875 L 514.519531 99.410156 L 430.800781 99.410156 Z M 430.800781 180.6875 "/>
<g fill="rgb(0%, 0%, 0%)" fill-opacity="1">
<use xlink:href="#glyph-1-9" x="436.28125" y="115.454102"/>
<use xlink:href="#glyph-1-10" x="447.28125" y="115.454102"/>
<use xlink:href="#glyph-1-11" x="455.28125" y="115.454102"/>
<use xlink:href="#glyph-1-2" x="463.28125" y="115.454102"/>
<use xlink:href="#glyph-1-12" x="471.28125" y="115.454102"/>
</g>
<path fill-rule="nonzero" fill="rgb(100%, 100%, 100%)" fill-opacity="1" d="M 436.28125 140.648438 L 453.5625 140.648438 L 453.5625 123.367188 L 436.28125 123.367188 Z M 436.28125 140.648438 "/>
<path fill="none" stroke-width="2.133957" stroke-linecap="butt" stroke-linejoin="round" stroke="rgb(40%, 76.078431%, 64.705882%)" stroke-opacity="1" stroke-miterlimit="10" d="M 438.007812 132.007812 L 451.832031 132.007812 "/>
<path fill-rule="nonzero" fill="rgb(100%, 100%, 100%)" fill-opacity="1" d="M 436.28125 157.925781 L 453.5625 157.925781 L 453.5625 140.644531 L 436.28125 140.644531 Z M 436.28125 157.925781 "/>
<path fill="none" stroke-width="2.133957" stroke-linecap="butt" stroke-linejoin="round" stroke="rgb(98.823529%, 55.294118%, 38.431373%)" stroke-opacity="1" stroke-miterlimit="10" d="M 438.007812 149.289062 L 451.832031 149.289062 "/>
<path fill-rule="nonzero" fill="rgb(100%, 100%, 100%)" fill-opacity="1" d="M 436.28125 175.207031 L 453.5625 175.207031 L 453.5625 157.925781 L 436.28125 157.925781 Z M 436.28125 175.207031 "/>
<path fill="none" stroke-width="2.133957" stroke-linecap="butt" stroke-linejoin="round" stroke="rgb(55.294118%, 62.745098%, 79.607843%)" stroke-opacity="1" stroke-miterlimit="10" d="M 438.007812 166.566406 L 451.832031 166.566406 "/>
<g fill="rgb(0%, 0%, 0%)" fill-opacity="1">
<use xlink:href="#glyph-0-15" x="459.042969" y="135.661133"/>
<use xlink:href="#glyph-0-1" x="467.042969" y="135.661133"/>
<use xlink:href="#glyph-0-16" x="473.042969" y="135.661133"/>
<use xlink:href="#glyph-0-17" x="483.042969" y="135.661133"/>
<use xlink:href="#glyph-0-18" x="490.042969" y="135.661133"/>
<use xlink:href="#glyph-0-19" x="496.042969" y="135.661133"/>
<use xlink:href="#glyph-0-4" x="500.042969" y="135.661133"/>
<use xlink:href="#glyph-0-20" x="504.042969" y="135.661133"/>
</g>
<g fill="rgb(0%, 0%, 0%)" fill-opacity="1">
<use xlink:href="#glyph-0-0" x="459.042969" y="152.942383"/>
<use xlink:href="#glyph-0-1" x="465.042969" y="152.942383"/>
<use xlink:href="#glyph-0-21" x="471.042969" y="152.942383"/>
<use xlink:href="#glyph-0-5" x="478.042969" y="152.942383"/>
<use xlink:href="#glyph-0-22" x="481.042969" y="152.942383"/>
<use xlink:href="#glyph-0-4" x="486.042969" y="152.942383"/>
<use xlink:href="#glyph-0-5" x="490.042969" y="152.942383"/>
<use xlink:href="#glyph-0-2" x="493.042969" y="152.942383"/>
</g>
<g fill="rgb(0%, 0%, 0%)" fill-opacity="1">
<use xlink:href="#glyph-0-23" x="459.042969" y="170.219727"/>
<use xlink:href="#glyph-0-5" x="466.042969" y="170.219727"/>
<use xlink:href="#glyph-0-2" x="469.042969" y="170.219727"/>
<use xlink:href="#glyph-0-24" x="475.042969" y="170.219727"/>
<use xlink:href="#glyph-0-3" x="482.042969" y="170.219727"/>
<use xlink:href="#glyph-0-19" x="488.042969" y="170.219727"/>
<use xlink:href="#glyph-0-25" x="492.042969" y="170.219727"/>
<use xlink:href="#glyph-0-22" x="499.042969" y="170.219727"/>
</g>
</svg>
